<mxfile host="app.diagrams.net" modified="2022-05-14T03:11:05.959Z" agent="5.0 (Windows NT 10.0; Win64; x64) AppleWebKit/537.36 (KHTML, like Gecko) Chrome/71.0.3578.98 Safari/537.36" etag="M8aTSduDkBVp3jSSv62U" version="17.4.3" type="github">
  <diagram id="x9_vDVGrkxcLB9mls0GU" name="Page-1">
    <mxGraphModel dx="1352" dy="3195" grid="1" gridSize="10" guides="1" tooltips="1" connect="1" arrows="1" fold="1" page="1" pageScale="1" pageWidth="827" pageHeight="1169" background="none" math="0" shadow="0">
      <root>
        <mxCell id="0" />
        <mxCell id="1" parent="0" />
        <mxCell id="9HWVBvcTGCDn2XjVBNJA-212" value="PollRuleBean&#xa;数据模型" style="shape=table;startSize=45;container=1;collapsible=0;childLayout=tableLayout;rounded=0;shadow=0;comic=0;sketch=0;labelBorderColor=none;" parent="1" vertex="1">
          <mxGeometry x="220" y="-960" width="180" height="156" as="geometry" />
        </mxCell>
        <mxCell id="9HWVBvcTGCDn2XjVBNJA-213" value="" style="shape=tableRow;horizontal=0;startSize=0;swimlaneHead=0;swimlaneBody=0;top=0;left=0;bottom=0;right=0;collapsible=0;dropTarget=0;fillColor=none;points=[[0,0.5],[1,0.5]];portConstraint=eastwest;rounded=0;shadow=0;comic=0;sketch=0;" parent="9HWVBvcTGCDn2XjVBNJA-212" vertex="1">
          <mxGeometry y="45" width="180" height="37" as="geometry" />
        </mxCell>
        <mxCell id="9HWVBvcTGCDn2XjVBNJA-214" value="&lt;span&gt;Event&lt;/span&gt;" style="shape=partialRectangle;html=1;whiteSpace=wrap;connectable=0;overflow=hidden;fillColor=none;top=0;left=0;bottom=0;right=0;pointerEvents=1;rounded=0;shadow=0;comic=0;sketch=0;startSize=0;" parent="9HWVBvcTGCDn2XjVBNJA-213" vertex="1">
          <mxGeometry width="60" height="37" as="geometry">
            <mxRectangle width="60" height="37" as="alternateBounds" />
          </mxGeometry>
        </mxCell>
        <mxCell id="9HWVBvcTGCDn2XjVBNJA-215" value="&lt;span&gt;E&lt;/span&gt;" style="shape=partialRectangle;html=1;whiteSpace=wrap;connectable=0;overflow=hidden;fillColor=none;top=0;left=0;bottom=0;right=0;pointerEvents=1;rounded=0;shadow=0;comic=0;sketch=0;startSize=0;" parent="9HWVBvcTGCDn2XjVBNJA-213" vertex="1">
          <mxGeometry x="60" width="60" height="37" as="geometry">
            <mxRectangle width="60" height="37" as="alternateBounds" />
          </mxGeometry>
        </mxCell>
        <mxCell id="9HWVBvcTGCDn2XjVBNJA-216" value="&lt;span&gt;事件&lt;/span&gt;" style="shape=partialRectangle;html=1;whiteSpace=wrap;connectable=0;overflow=hidden;fillColor=none;top=0;left=0;bottom=0;right=0;pointerEvents=1;rounded=0;shadow=0;comic=0;sketch=0;startSize=0;" parent="9HWVBvcTGCDn2XjVBNJA-213" vertex="1">
          <mxGeometry x="120" width="60" height="37" as="geometry">
            <mxRectangle width="60" height="37" as="alternateBounds" />
          </mxGeometry>
        </mxCell>
        <mxCell id="9HWVBvcTGCDn2XjVBNJA-217" value="" style="shape=tableRow;horizontal=0;startSize=0;swimlaneHead=0;swimlaneBody=0;top=0;left=0;bottom=0;right=0;collapsible=0;dropTarget=0;fillColor=none;points=[[0,0.5],[1,0.5]];portConstraint=eastwest;rounded=0;shadow=0;comic=0;sketch=0;" parent="9HWVBvcTGCDn2XjVBNJA-212" vertex="1">
          <mxGeometry y="82" width="180" height="37" as="geometry" />
        </mxCell>
        <mxCell id="9HWVBvcTGCDn2XjVBNJA-218" value="&lt;span&gt;RuleId&lt;/span&gt;" style="shape=partialRectangle;html=1;whiteSpace=wrap;connectable=0;overflow=hidden;fillColor=none;top=0;left=0;bottom=0;right=0;pointerEvents=1;rounded=0;shadow=0;comic=0;sketch=0;startSize=0;" parent="9HWVBvcTGCDn2XjVBNJA-217" vertex="1">
          <mxGeometry width="60" height="37" as="geometry">
            <mxRectangle width="60" height="37" as="alternateBounds" />
          </mxGeometry>
        </mxCell>
        <mxCell id="9HWVBvcTGCDn2XjVBNJA-219" value="INT" style="shape=partialRectangle;html=1;whiteSpace=wrap;connectable=0;overflow=hidden;fillColor=none;top=0;left=0;bottom=0;right=0;pointerEvents=1;rounded=0;shadow=0;comic=0;sketch=0;startSize=0;" parent="9HWVBvcTGCDn2XjVBNJA-217" vertex="1">
          <mxGeometry x="60" width="60" height="37" as="geometry">
            <mxRectangle width="60" height="37" as="alternateBounds" />
          </mxGeometry>
        </mxCell>
        <mxCell id="9HWVBvcTGCDn2XjVBNJA-220" value="&lt;span&gt;规则ID&lt;/span&gt;" style="shape=partialRectangle;html=1;whiteSpace=wrap;connectable=0;overflow=hidden;fillColor=none;top=0;left=0;bottom=0;right=0;pointerEvents=1;rounded=0;shadow=0;comic=0;sketch=0;startSize=0;" parent="9HWVBvcTGCDn2XjVBNJA-217" vertex="1">
          <mxGeometry x="120" width="60" height="37" as="geometry">
            <mxRectangle width="60" height="37" as="alternateBounds" />
          </mxGeometry>
        </mxCell>
        <mxCell id="9HWVBvcTGCDn2XjVBNJA-221" value="" style="shape=tableRow;horizontal=0;startSize=0;swimlaneHead=0;swimlaneBody=0;top=0;left=0;bottom=0;right=0;collapsible=0;dropTarget=0;fillColor=none;points=[[0,0.5],[1,0.5]];portConstraint=eastwest;rounded=0;shadow=0;comic=0;sketch=0;" parent="9HWVBvcTGCDn2XjVBNJA-212" vertex="1">
          <mxGeometry y="119" width="180" height="37" as="geometry" />
        </mxCell>
        <mxCell id="9HWVBvcTGCDn2XjVBNJA-222" value="&lt;span&gt;KeyBy&lt;/span&gt;" style="shape=partialRectangle;html=1;whiteSpace=wrap;connectable=0;overflow=hidden;fillColor=none;top=0;left=0;bottom=0;right=0;pointerEvents=1;rounded=0;shadow=0;comic=0;sketch=0;startSize=0;" parent="9HWVBvcTGCDn2XjVBNJA-221" vertex="1">
          <mxGeometry width="60" height="37" as="geometry">
            <mxRectangle width="60" height="37" as="alternateBounds" />
          </mxGeometry>
        </mxCell>
        <mxCell id="9HWVBvcTGCDn2XjVBNJA-223" value="String" style="shape=partialRectangle;html=1;whiteSpace=wrap;connectable=0;overflow=hidden;fillColor=none;top=0;left=0;bottom=0;right=0;pointerEvents=1;rounded=0;shadow=0;comic=0;sketch=0;startSize=0;" parent="9HWVBvcTGCDn2XjVBNJA-221" vertex="1">
          <mxGeometry x="60" width="60" height="37" as="geometry">
            <mxRectangle width="60" height="37" as="alternateBounds" />
          </mxGeometry>
        </mxCell>
        <mxCell id="9HWVBvcTGCDn2XjVBNJA-224" value="{K=V}格式" style="shape=partialRectangle;html=1;whiteSpace=wrap;connectable=0;overflow=hidden;fillColor=none;top=0;left=0;bottom=0;right=0;pointerEvents=1;rounded=0;shadow=0;comic=0;sketch=0;startSize=0;" parent="9HWVBvcTGCDn2XjVBNJA-221" vertex="1">
          <mxGeometry x="120" width="60" height="37" as="geometry">
            <mxRectangle width="60" height="37" as="alternateBounds" />
          </mxGeometry>
        </mxCell>
        <mxCell id="9HWVBvcTGCDn2XjVBNJA-236" value="ModelTrigger&#xa;数据模型" style="shape=table;startSize=45;container=1;collapsible=0;childLayout=tableLayout;rounded=0;shadow=0;comic=0;sketch=0;fillColor=default;gradientColor=none;" parent="1" vertex="1">
          <mxGeometry x="698" y="-960" width="250" height="267" as="geometry" />
        </mxCell>
        <mxCell id="9HWVBvcTGCDn2XjVBNJA-237" value="" style="shape=tableRow;horizontal=0;startSize=0;swimlaneHead=0;swimlaneBody=0;top=0;left=0;bottom=0;right=0;collapsible=0;dropTarget=0;fillColor=none;points=[[0,0.5],[1,0.5]];portConstraint=eastwest;rounded=0;shadow=0;comic=0;sketch=0;" parent="9HWVBvcTGCDn2XjVBNJA-236" vertex="1">
          <mxGeometry y="45" width="250" height="37" as="geometry" />
        </mxCell>
        <mxCell id="9HWVBvcTGCDn2XjVBNJA-238" value="RuleId" style="shape=partialRectangle;html=1;whiteSpace=wrap;connectable=0;overflow=hidden;fillColor=none;top=0;left=0;bottom=0;right=0;pointerEvents=1;rounded=0;shadow=0;comic=0;sketch=0;startSize=0;" parent="9HWVBvcTGCDn2XjVBNJA-237" vertex="1">
          <mxGeometry width="90" height="37" as="geometry">
            <mxRectangle width="90" height="37" as="alternateBounds" />
          </mxGeometry>
        </mxCell>
        <mxCell id="9HWVBvcTGCDn2XjVBNJA-239" value="INT" style="shape=partialRectangle;html=1;whiteSpace=wrap;connectable=0;overflow=hidden;fillColor=none;top=0;left=0;bottom=0;right=0;pointerEvents=1;rounded=0;shadow=0;comic=0;sketch=0;startSize=0;" parent="9HWVBvcTGCDn2XjVBNJA-237" vertex="1">
          <mxGeometry x="90" width="60" height="37" as="geometry">
            <mxRectangle width="60" height="37" as="alternateBounds" />
          </mxGeometry>
        </mxCell>
        <mxCell id="9HWVBvcTGCDn2XjVBNJA-240" value="规则ID" style="shape=partialRectangle;html=1;whiteSpace=wrap;connectable=0;overflow=hidden;fillColor=none;top=0;left=0;bottom=0;right=0;pointerEvents=1;rounded=0;shadow=0;comic=0;sketch=0;startSize=0;" parent="9HWVBvcTGCDn2XjVBNJA-237" vertex="1">
          <mxGeometry x="150" width="100" height="37" as="geometry">
            <mxRectangle width="100" height="37" as="alternateBounds" />
          </mxGeometry>
        </mxCell>
        <mxCell id="Ak1ZEkQ7FC0WPa4JEUtc-240" style="shape=tableRow;horizontal=0;startSize=0;swimlaneHead=0;swimlaneBody=0;top=0;left=0;bottom=0;right=0;collapsible=0;dropTarget=0;fillColor=none;points=[[0,0.5],[1,0.5]];portConstraint=eastwest;rounded=0;shadow=0;comic=0;sketch=0;" parent="9HWVBvcTGCDn2XjVBNJA-236" vertex="1">
          <mxGeometry y="82" width="250" height="37" as="geometry" />
        </mxCell>
        <mxCell id="Ak1ZEkQ7FC0WPa4JEUtc-241" value="KeyBy" style="shape=partialRectangle;html=1;whiteSpace=wrap;connectable=0;overflow=hidden;fillColor=none;top=0;left=0;bottom=0;right=0;pointerEvents=1;rounded=0;shadow=0;comic=0;sketch=0;startSize=0;" parent="Ak1ZEkQ7FC0WPa4JEUtc-240" vertex="1">
          <mxGeometry width="90" height="37" as="geometry">
            <mxRectangle width="90" height="37" as="alternateBounds" />
          </mxGeometry>
        </mxCell>
        <mxCell id="Ak1ZEkQ7FC0WPa4JEUtc-242" value="String" style="shape=partialRectangle;html=1;whiteSpace=wrap;connectable=0;overflow=hidden;fillColor=none;top=0;left=0;bottom=0;right=0;pointerEvents=1;rounded=0;shadow=0;comic=0;sketch=0;startSize=0;" parent="Ak1ZEkQ7FC0WPa4JEUtc-240" vertex="1">
          <mxGeometry x="90" width="60" height="37" as="geometry">
            <mxRectangle width="60" height="37" as="alternateBounds" />
          </mxGeometry>
        </mxCell>
        <mxCell id="Ak1ZEkQ7FC0WPa4JEUtc-243" value="{K=V}格式" style="shape=partialRectangle;html=1;whiteSpace=wrap;connectable=0;overflow=hidden;fillColor=none;top=0;left=0;bottom=0;right=0;pointerEvents=1;rounded=0;shadow=0;comic=0;sketch=0;startSize=0;" parent="Ak1ZEkQ7FC0WPa4JEUtc-240" vertex="1">
          <mxGeometry x="150" width="100" height="37" as="geometry">
            <mxRectangle width="100" height="37" as="alternateBounds" />
          </mxGeometry>
        </mxCell>
        <mxCell id="9HWVBvcTGCDn2XjVBNJA-241" value="" style="shape=tableRow;horizontal=0;startSize=0;swimlaneHead=0;swimlaneBody=0;top=0;left=0;bottom=0;right=0;collapsible=0;dropTarget=0;fillColor=none;points=[[0,0.5],[1,0.5]];portConstraint=eastwest;rounded=0;shadow=0;comic=0;sketch=0;" parent="9HWVBvcTGCDn2XjVBNJA-236" vertex="1">
          <mxGeometry y="119" width="250" height="37" as="geometry" />
        </mxCell>
        <mxCell id="9HWVBvcTGCDn2XjVBNJA-242" value="TriggerEvent" style="shape=partialRectangle;html=1;whiteSpace=wrap;connectable=0;overflow=hidden;fillColor=none;top=0;left=0;bottom=0;right=0;pointerEvents=1;rounded=0;shadow=0;comic=0;sketch=0;startSize=0;" parent="9HWVBvcTGCDn2XjVBNJA-241" vertex="1">
          <mxGeometry width="90" height="37" as="geometry">
            <mxRectangle width="90" height="37" as="alternateBounds" />
          </mxGeometry>
        </mxCell>
        <mxCell id="9HWVBvcTGCDn2XjVBNJA-243" value="LIST&amp;lt;E&amp;gt;" style="shape=partialRectangle;html=1;whiteSpace=wrap;connectable=0;overflow=hidden;fillColor=none;top=0;left=0;bottom=0;right=0;pointerEvents=1;rounded=0;shadow=0;comic=0;sketch=0;startSize=0;" parent="9HWVBvcTGCDn2XjVBNJA-241" vertex="1">
          <mxGeometry x="90" width="60" height="37" as="geometry">
            <mxRectangle width="60" height="37" as="alternateBounds" />
          </mxGeometry>
        </mxCell>
        <mxCell id="9HWVBvcTGCDn2XjVBNJA-244" value="触发事件" style="shape=partialRectangle;html=1;whiteSpace=wrap;connectable=0;overflow=hidden;fillColor=none;top=0;left=0;bottom=0;right=0;pointerEvents=1;rounded=0;shadow=0;comic=0;sketch=0;startSize=0;" parent="9HWVBvcTGCDn2XjVBNJA-241" vertex="1">
          <mxGeometry x="150" width="100" height="37" as="geometry">
            <mxRectangle width="100" height="37" as="alternateBounds" />
          </mxGeometry>
        </mxCell>
        <mxCell id="9HWVBvcTGCDn2XjVBNJA-245" value="" style="shape=tableRow;horizontal=0;startSize=0;swimlaneHead=0;swimlaneBody=0;top=0;left=0;bottom=0;right=0;collapsible=0;dropTarget=0;fillColor=none;points=[[0,0.5],[1,0.5]];portConstraint=eastwest;rounded=0;shadow=0;comic=0;sketch=0;" parent="9HWVBvcTGCDn2XjVBNJA-236" vertex="1">
          <mxGeometry y="156" width="250" height="37" as="geometry" />
        </mxCell>
        <mxCell id="9HWVBvcTGCDn2XjVBNJA-246" value="TriggerValue" style="shape=partialRectangle;html=1;whiteSpace=wrap;connectable=0;overflow=hidden;fillColor=none;top=0;left=0;bottom=0;right=0;pointerEvents=1;rounded=0;shadow=0;comic=0;sketch=0;startSize=0;" parent="9HWVBvcTGCDn2XjVBNJA-245" vertex="1">
          <mxGeometry width="90" height="37" as="geometry">
            <mxRectangle width="90" height="37" as="alternateBounds" />
          </mxGeometry>
        </mxCell>
        <mxCell id="9HWVBvcTGCDn2XjVBNJA-247" value="V" style="shape=partialRectangle;html=1;whiteSpace=wrap;connectable=0;overflow=hidden;fillColor=none;top=0;left=0;bottom=0;right=0;pointerEvents=1;rounded=0;shadow=0;comic=0;sketch=0;startSize=0;" parent="9HWVBvcTGCDn2XjVBNJA-245" vertex="1">
          <mxGeometry x="90" width="60" height="37" as="geometry">
            <mxRectangle width="60" height="37" as="alternateBounds" />
          </mxGeometry>
        </mxCell>
        <mxCell id="9HWVBvcTGCDn2XjVBNJA-248" value="触发值（统计型）" style="shape=partialRectangle;html=1;whiteSpace=wrap;connectable=0;overflow=hidden;fillColor=none;top=0;left=0;bottom=0;right=0;pointerEvents=1;rounded=0;shadow=0;comic=0;sketch=0;startSize=0;" parent="9HWVBvcTGCDn2XjVBNJA-245" vertex="1">
          <mxGeometry x="150" width="100" height="37" as="geometry">
            <mxRectangle width="100" height="37" as="alternateBounds" />
          </mxGeometry>
        </mxCell>
        <mxCell id="9HWVBvcTGCDn2XjVBNJA-249" value="" style="shape=tableRow;horizontal=0;startSize=0;swimlaneHead=0;swimlaneBody=0;top=0;left=0;bottom=0;right=0;collapsible=0;dropTarget=0;fillColor=none;points=[[0,0.5],[1,0.5]];portConstraint=eastwest;rounded=0;shadow=0;comic=0;sketch=0;" parent="9HWVBvcTGCDn2XjVBNJA-236" vertex="1">
          <mxGeometry y="193" width="250" height="37" as="geometry" />
        </mxCell>
        <mxCell id="9HWVBvcTGCDn2XjVBNJA-250" value="&lt;span&gt;Model&lt;/span&gt;" style="shape=partialRectangle;html=1;whiteSpace=wrap;connectable=0;overflow=hidden;fillColor=none;top=0;left=0;bottom=0;right=0;pointerEvents=1;rounded=0;shadow=0;comic=0;sketch=0;startSize=0;" parent="9HWVBvcTGCDn2XjVBNJA-249" vertex="1">
          <mxGeometry width="90" height="37" as="geometry">
            <mxRectangle width="90" height="37" as="alternateBounds" />
          </mxGeometry>
        </mxCell>
        <mxCell id="9HWVBvcTGCDn2XjVBNJA-251" value="&lt;span&gt;ENUM&lt;/span&gt;" style="shape=partialRectangle;html=1;whiteSpace=wrap;connectable=0;overflow=hidden;fillColor=none;top=0;left=0;bottom=0;right=0;pointerEvents=1;rounded=0;shadow=0;comic=0;sketch=0;startSize=0;" parent="9HWVBvcTGCDn2XjVBNJA-249" vertex="1">
          <mxGeometry x="90" width="60" height="37" as="geometry">
            <mxRectangle width="60" height="37" as="alternateBounds" />
          </mxGeometry>
        </mxCell>
        <mxCell id="9HWVBvcTGCDn2XjVBNJA-252" value="&lt;span&gt;模型&lt;/span&gt;" style="shape=partialRectangle;html=1;whiteSpace=wrap;connectable=0;overflow=hidden;fillColor=none;top=0;left=0;bottom=0;right=0;pointerEvents=1;rounded=0;shadow=0;comic=0;sketch=0;startSize=0;" parent="9HWVBvcTGCDn2XjVBNJA-249" vertex="1">
          <mxGeometry x="150" width="100" height="37" as="geometry">
            <mxRectangle width="100" height="37" as="alternateBounds" />
          </mxGeometry>
        </mxCell>
        <mxCell id="9HWVBvcTGCDn2XjVBNJA-253" value="" style="shape=tableRow;horizontal=0;startSize=0;swimlaneHead=0;swimlaneBody=0;top=0;left=0;bottom=0;right=0;collapsible=0;dropTarget=0;fillColor=none;points=[[0,0.5],[1,0.5]];portConstraint=eastwest;rounded=0;shadow=0;comic=0;sketch=0;" parent="9HWVBvcTGCDn2XjVBNJA-236" vertex="1">
          <mxGeometry y="230" width="250" height="37" as="geometry" />
        </mxCell>
        <mxCell id="9HWVBvcTGCDn2XjVBNJA-254" value="&lt;span&gt;Relation&lt;/span&gt;" style="shape=partialRectangle;html=1;whiteSpace=wrap;connectable=0;overflow=hidden;fillColor=none;top=0;left=0;bottom=0;right=0;pointerEvents=1;rounded=0;shadow=0;comic=0;sketch=0;startSize=0;" parent="9HWVBvcTGCDn2XjVBNJA-253" vertex="1">
          <mxGeometry width="90" height="37" as="geometry">
            <mxRectangle width="90" height="37" as="alternateBounds" />
          </mxGeometry>
        </mxCell>
        <mxCell id="9HWVBvcTGCDn2XjVBNJA-255" value="ENUM" style="shape=partialRectangle;html=1;whiteSpace=wrap;connectable=0;overflow=hidden;fillColor=none;top=0;left=0;bottom=0;right=0;pointerEvents=1;rounded=0;shadow=0;comic=0;sketch=0;startSize=0;" parent="9HWVBvcTGCDn2XjVBNJA-253" vertex="1">
          <mxGeometry x="90" width="60" height="37" as="geometry">
            <mxRectangle width="60" height="37" as="alternateBounds" />
          </mxGeometry>
        </mxCell>
        <mxCell id="9HWVBvcTGCDn2XjVBNJA-256" value="&lt;span&gt;与或关系&lt;/span&gt;" style="shape=partialRectangle;html=1;whiteSpace=wrap;connectable=0;overflow=hidden;fillColor=none;top=0;left=0;bottom=0;right=0;pointerEvents=1;rounded=0;shadow=0;comic=0;sketch=0;startSize=0;" parent="9HWVBvcTGCDn2XjVBNJA-253" vertex="1">
          <mxGeometry x="150" width="100" height="37" as="geometry">
            <mxRectangle width="100" height="37" as="alternateBounds" />
          </mxGeometry>
        </mxCell>
        <mxCell id="Ak1ZEkQ7FC0WPa4JEUtc-51" value="" style="group" parent="1" vertex="1" connectable="0">
          <mxGeometry y="-584.0000000000001" width="618" height="170.13999999999987" as="geometry" />
        </mxCell>
        <mxCell id="Ak1ZEkQ7FC0WPa4JEUtc-41" value="&lt;h1&gt;为什么序列型的要放在前？&lt;/h1&gt;&lt;p&gt;因为CEP的匹配是基于第一个事件开始算N分钟的，因此在CEP中，将WithIn时间设为最大容忍的乱序时间（序列型和统计型的）.&lt;/p&gt;" style="text;html=1;strokeColor=none;fillColor=none;spacing=5;spacingTop=-20;whiteSpace=wrap;overflow=hidden;rounded=0;" parent="Ak1ZEkQ7FC0WPa4JEUtc-51" vertex="1">
          <mxGeometry y="1" width="190" height="150" as="geometry" />
        </mxCell>
        <mxCell id="Ak1ZEkQ7FC0WPa4JEUtc-48" value="" style="group" parent="Ak1ZEkQ7FC0WPa4JEUtc-51" vertex="1" connectable="0">
          <mxGeometry x="240" y="-9.07" width="395" height="170.13999999999987" as="geometry" />
        </mxCell>
        <mxCell id="Ak1ZEkQ7FC0WPa4JEUtc-42" value="" style="group" parent="Ak1ZEkQ7FC0WPa4JEUtc-48" vertex="1" connectable="0">
          <mxGeometry y="38" width="395" height="132.14" as="geometry" />
        </mxCell>
        <mxCell id="Ak1ZEkQ7FC0WPa4JEUtc-23" value="" style="group" parent="Ak1ZEkQ7FC0WPa4JEUtc-42" vertex="1" connectable="0">
          <mxGeometry y="40" width="395" height="92.13999999999999" as="geometry" />
        </mxCell>
        <mxCell id="Ak1ZEkQ7FC0WPa4JEUtc-5" value="" style="endArrow=classic;html=1;rounded=0;startArrow=none;" parent="Ak1ZEkQ7FC0WPa4JEUtc-23" source="Ak1ZEkQ7FC0WPa4JEUtc-19" edge="1">
          <mxGeometry width="50" height="50" relative="1" as="geometry">
            <mxPoint y="19" as="sourcePoint" />
            <mxPoint x="395" y="19" as="targetPoint" />
          </mxGeometry>
        </mxCell>
        <mxCell id="Ak1ZEkQ7FC0WPa4JEUtc-15" value="" style="shape=waypoint;sketch=0;size=6;pointerEvents=1;points=[];fillColor=none;resizable=0;rotatable=0;perimeter=centerPerimeter;snapToPoint=1;" parent="Ak1ZEkQ7FC0WPa4JEUtc-23" vertex="1">
          <mxGeometry x="45" width="40" height="40" as="geometry" />
        </mxCell>
        <mxCell id="Ak1ZEkQ7FC0WPa4JEUtc-21" value="" style="endArrow=none;html=1;rounded=0;" parent="Ak1ZEkQ7FC0WPa4JEUtc-23" target="Ak1ZEkQ7FC0WPa4JEUtc-15" edge="1">
          <mxGeometry width="50" height="50" relative="1" as="geometry">
            <mxPoint y="19" as="sourcePoint" />
            <mxPoint x="395" y="19" as="targetPoint" />
          </mxGeometry>
        </mxCell>
        <mxCell id="Ak1ZEkQ7FC0WPa4JEUtc-19" value="" style="shape=waypoint;sketch=0;size=6;pointerEvents=1;points=[];fillColor=none;resizable=0;rotatable=0;perimeter=centerPerimeter;snapToPoint=1;" parent="Ak1ZEkQ7FC0WPa4JEUtc-23" vertex="1">
          <mxGeometry x="270" width="40" height="40" as="geometry" />
        </mxCell>
        <mxCell id="Ak1ZEkQ7FC0WPa4JEUtc-22" value="" style="endArrow=none;html=1;rounded=0;startArrow=none;" parent="Ak1ZEkQ7FC0WPa4JEUtc-23" source="Ak1ZEkQ7FC0WPa4JEUtc-15" target="Ak1ZEkQ7FC0WPa4JEUtc-19" edge="1">
          <mxGeometry width="50" height="50" relative="1" as="geometry">
            <mxPoint x="65" y="20" as="sourcePoint" />
            <mxPoint x="395" y="19" as="targetPoint" />
          </mxGeometry>
        </mxCell>
        <mxCell id="Ak1ZEkQ7FC0WPa4JEUtc-45" value="" style="whiteSpace=wrap;html=1;aspect=fixed;fillColor=#cce5ff;strokeColor=#36393d;opacity=60;" parent="Ak1ZEkQ7FC0WPa4JEUtc-23" vertex="1">
          <mxGeometry x="133.86" y="-60" width="80.14" height="80.14" as="geometry" />
        </mxCell>
        <mxCell id="Ak1ZEkQ7FC0WPa4JEUtc-47" value="" style="group" parent="Ak1ZEkQ7FC0WPa4JEUtc-42" vertex="1" connectable="0">
          <mxGeometry x="35" width="288.57" height="100" as="geometry" />
        </mxCell>
        <mxCell id="Ak1ZEkQ7FC0WPa4JEUtc-16" value="序列型（CEP）" style="text;html=1;strokeColor=none;fillColor=none;align=center;verticalAlign=middle;whiteSpace=wrap;rounded=0;" parent="Ak1ZEkQ7FC0WPa4JEUtc-47" vertex="1">
          <mxGeometry y="70" width="60" height="30" as="geometry" />
        </mxCell>
        <mxCell id="Ak1ZEkQ7FC0WPa4JEUtc-20" value="统计型&lt;br&gt;（ProcessFunction）" style="text;html=1;strokeColor=none;fillColor=none;align=center;verticalAlign=middle;whiteSpace=wrap;rounded=0;" parent="Ak1ZEkQ7FC0WPa4JEUtc-47" vertex="1">
          <mxGeometry x="228.57" y="70" width="60" height="30" as="geometry" />
        </mxCell>
        <mxCell id="Ak1ZEkQ7FC0WPa4JEUtc-24" value="" style="endArrow=classic;html=1;rounded=0;dashed=1;" parent="Ak1ZEkQ7FC0WPa4JEUtc-47" edge="1">
          <mxGeometry relative="1" as="geometry">
            <mxPoint x="30" y="60" as="sourcePoint" />
            <mxPoint x="200" y="30" as="targetPoint" />
            <Array as="points">
              <mxPoint x="30" y="30" />
            </Array>
          </mxGeometry>
        </mxCell>
        <mxCell id="Ak1ZEkQ7FC0WPa4JEUtc-25" value="第一个匹配事件+5Min" style="edgeLabel;resizable=0;html=1;align=center;verticalAlign=middle;" parent="Ak1ZEkQ7FC0WPa4JEUtc-24" connectable="0" vertex="1">
          <mxGeometry relative="1" as="geometry">
            <mxPoint x="13" as="offset" />
          </mxGeometry>
        </mxCell>
        <mxCell id="Ak1ZEkQ7FC0WPa4JEUtc-27" value="" style="endArrow=classic;html=1;rounded=0;exitX=0.475;exitY=0.375;exitDx=0;exitDy=0;exitPerimeter=0;dashed=1;" parent="Ak1ZEkQ7FC0WPa4JEUtc-47" source="Ak1ZEkQ7FC0WPa4JEUtc-19" edge="1">
          <mxGeometry relative="1" as="geometry">
            <mxPoint x="280" y="-30" as="sourcePoint" />
            <mxPoint x="70" as="targetPoint" />
            <Array as="points">
              <mxPoint x="255" />
            </Array>
          </mxGeometry>
        </mxCell>
        <mxCell id="Ak1ZEkQ7FC0WPa4JEUtc-28" value="最新匹配事件-5Min" style="edgeLabel;resizable=0;html=1;align=center;verticalAlign=middle;" parent="Ak1ZEkQ7FC0WPa4JEUtc-27" connectable="0" vertex="1">
          <mxGeometry relative="1" as="geometry">
            <mxPoint x="-20" as="offset" />
          </mxGeometry>
        </mxCell>
        <mxCell id="Ak1ZEkQ7FC0WPa4JEUtc-46" value="withIn时间" style="text;html=1;align=center;verticalAlign=middle;resizable=0;points=[];autosize=1;strokeColor=none;fillColor=none;" parent="Ak1ZEkQ7FC0WPa4JEUtc-48" vertex="1">
          <mxGeometry x="138.86" width="70" height="20" as="geometry" />
        </mxCell>
        <mxCell id="Ak1ZEkQ7FC0WPa4JEUtc-62" value="AlertNew&#xa;数据模型" style="shape=table;startSize=45;container=1;collapsible=0;childLayout=tableLayout;rounded=0;shadow=0;comic=0;sketch=0;fillColor=default;gradientColor=none;" parent="1" vertex="1">
          <mxGeometry x="1010" y="-960" width="300" height="190" as="geometry" />
        </mxCell>
        <mxCell id="Ak1ZEkQ7FC0WPa4JEUtc-63" value="" style="shape=tableRow;horizontal=0;startSize=0;swimlaneHead=0;swimlaneBody=0;top=0;left=0;bottom=0;right=0;collapsible=0;dropTarget=0;fillColor=none;points=[[0,0.5],[1,0.5]];portConstraint=eastwest;rounded=0;shadow=0;comic=0;sketch=0;" parent="Ak1ZEkQ7FC0WPa4JEUtc-62" vertex="1">
          <mxGeometry y="45" width="300" height="30" as="geometry" />
        </mxCell>
        <mxCell id="Ak1ZEkQ7FC0WPa4JEUtc-64" value="RuleId" style="shape=partialRectangle;html=1;whiteSpace=wrap;connectable=0;overflow=hidden;fillColor=none;top=0;left=0;bottom=0;right=0;pointerEvents=1;rounded=0;shadow=0;comic=0;sketch=0;startSize=0;" parent="Ak1ZEkQ7FC0WPa4JEUtc-63" vertex="1">
          <mxGeometry width="124" height="30" as="geometry">
            <mxRectangle width="124" height="30" as="alternateBounds" />
          </mxGeometry>
        </mxCell>
        <mxCell id="Ak1ZEkQ7FC0WPa4JEUtc-65" value="INT" style="shape=partialRectangle;html=1;whiteSpace=wrap;connectable=0;overflow=hidden;fillColor=none;top=0;left=0;bottom=0;right=0;pointerEvents=1;rounded=0;shadow=0;comic=0;sketch=0;startSize=0;" parent="Ak1ZEkQ7FC0WPa4JEUtc-63" vertex="1">
          <mxGeometry x="124" width="67" height="30" as="geometry">
            <mxRectangle width="67" height="30" as="alternateBounds" />
          </mxGeometry>
        </mxCell>
        <mxCell id="Ak1ZEkQ7FC0WPa4JEUtc-66" value="规则ID" style="shape=partialRectangle;html=1;whiteSpace=wrap;connectable=0;overflow=hidden;fillColor=none;top=0;left=0;bottom=0;right=0;pointerEvents=1;rounded=0;shadow=0;comic=0;sketch=0;startSize=0;" parent="Ak1ZEkQ7FC0WPa4JEUtc-63" vertex="1">
          <mxGeometry x="191" width="109" height="30" as="geometry">
            <mxRectangle width="109" height="30" as="alternateBounds" />
          </mxGeometry>
        </mxCell>
        <mxCell id="Ak1ZEkQ7FC0WPa4JEUtc-164" style="shape=tableRow;horizontal=0;startSize=0;swimlaneHead=0;swimlaneBody=0;top=0;left=0;bottom=0;right=0;collapsible=0;dropTarget=0;fillColor=none;points=[[0,0.5],[1,0.5]];portConstraint=eastwest;rounded=0;shadow=0;comic=0;sketch=0;" parent="Ak1ZEkQ7FC0WPa4JEUtc-62" vertex="1">
          <mxGeometry y="75" width="300" height="76" as="geometry" />
        </mxCell>
        <mxCell id="Ak1ZEkQ7FC0WPa4JEUtc-165" value="KeyBy" style="shape=partialRectangle;html=1;whiteSpace=wrap;connectable=0;overflow=hidden;fillColor=none;top=0;left=0;bottom=0;right=0;pointerEvents=1;rounded=0;shadow=0;comic=0;sketch=0;startSize=0;" parent="Ak1ZEkQ7FC0WPa4JEUtc-164" vertex="1">
          <mxGeometry width="124" height="76" as="geometry">
            <mxRectangle width="124" height="76" as="alternateBounds" />
          </mxGeometry>
        </mxCell>
        <mxCell id="Ak1ZEkQ7FC0WPa4JEUtc-166" value="String" style="shape=partialRectangle;html=1;whiteSpace=wrap;connectable=0;overflow=hidden;fillColor=none;top=0;left=0;bottom=0;right=0;pointerEvents=1;rounded=0;shadow=0;comic=0;sketch=0;startSize=0;" parent="Ak1ZEkQ7FC0WPa4JEUtc-164" vertex="1">
          <mxGeometry x="124" width="67" height="76" as="geometry">
            <mxRectangle width="67" height="76" as="alternateBounds" />
          </mxGeometry>
        </mxCell>
        <mxCell id="Ak1ZEkQ7FC0WPa4JEUtc-167" value="&quot;{KeyBy字段=字段对应的值}&quot;，可以从RuleID拿得到&lt;br&gt;" style="shape=partialRectangle;html=1;whiteSpace=wrap;connectable=0;overflow=hidden;fillColor=none;top=0;left=0;bottom=0;right=0;pointerEvents=1;rounded=0;shadow=0;comic=0;sketch=0;startSize=0;" parent="Ak1ZEkQ7FC0WPa4JEUtc-164" vertex="1">
          <mxGeometry x="191" width="109" height="76" as="geometry">
            <mxRectangle width="109" height="76" as="alternateBounds" />
          </mxGeometry>
        </mxCell>
        <mxCell id="Ak1ZEkQ7FC0WPa4JEUtc-67" value="" style="shape=tableRow;horizontal=0;startSize=0;swimlaneHead=0;swimlaneBody=0;top=0;left=0;bottom=0;right=0;collapsible=0;dropTarget=0;fillColor=none;points=[[0,0.5],[1,0.5]];portConstraint=eastwest;rounded=0;shadow=0;comic=0;sketch=0;" parent="Ak1ZEkQ7FC0WPa4JEUtc-62" vertex="1">
          <mxGeometry y="151" width="300" height="39" as="geometry" />
        </mxCell>
        <mxCell id="Ak1ZEkQ7FC0WPa4JEUtc-68" value="ModelTriggers" style="shape=partialRectangle;html=1;whiteSpace=wrap;connectable=0;overflow=hidden;fillColor=none;top=0;left=0;bottom=0;right=0;pointerEvents=1;rounded=0;shadow=0;comic=0;sketch=0;startSize=0;" parent="Ak1ZEkQ7FC0WPa4JEUtc-67" vertex="1">
          <mxGeometry width="124" height="39" as="geometry">
            <mxRectangle width="124" height="39" as="alternateBounds" />
          </mxGeometry>
        </mxCell>
        <mxCell id="Ak1ZEkQ7FC0WPa4JEUtc-69" value="List&amp;lt;V&amp;gt;" style="shape=partialRectangle;html=1;whiteSpace=wrap;connectable=0;overflow=hidden;fillColor=none;top=0;left=0;bottom=0;right=0;pointerEvents=1;rounded=0;shadow=0;comic=0;sketch=0;startSize=0;" parent="Ak1ZEkQ7FC0WPa4JEUtc-67" vertex="1">
          <mxGeometry x="124" width="67" height="39" as="geometry">
            <mxRectangle width="67" height="39" as="alternateBounds" />
          </mxGeometry>
        </mxCell>
        <mxCell id="Ak1ZEkQ7FC0WPa4JEUtc-70" value="触发Wrap-多模型" style="shape=partialRectangle;html=1;whiteSpace=wrap;connectable=0;overflow=hidden;fillColor=none;top=0;left=0;bottom=0;right=0;pointerEvents=1;rounded=0;shadow=0;comic=0;sketch=0;startSize=0;" parent="Ak1ZEkQ7FC0WPa4JEUtc-67" vertex="1">
          <mxGeometry x="191" width="109" height="39" as="geometry">
            <mxRectangle width="109" height="39" as="alternateBounds" />
          </mxGeometry>
        </mxCell>
        <mxCell id="Ak1ZEkQ7FC0WPa4JEUtc-131" style="edgeStyle=orthogonalEdgeStyle;orthogonalLoop=1;jettySize=auto;html=1;dashed=1;curved=1;entryX=0.5;entryY=0;entryDx=0;entryDy=0;" parent="1" target="Ak1ZEkQ7FC0WPa4JEUtc-62" edge="1">
          <mxGeometry relative="1" as="geometry">
            <mxPoint x="880" y="-1180" as="sourcePoint" />
            <Array as="points">
              <mxPoint x="890" y="-1180" />
              <mxPoint x="890" y="-990" />
              <mxPoint x="1160" y="-990" />
            </Array>
          </mxGeometry>
        </mxCell>
        <mxCell id="Ak1ZEkQ7FC0WPa4JEUtc-169" value="结果输出&lt;br&gt;AlertNew" style="whiteSpace=wrap;html=1;rounded=0;" parent="1" vertex="1">
          <mxGeometry x="960" y="-1213" width="120" height="60" as="geometry" />
        </mxCell>
        <mxCell id="SYf0jBdNwwrcCIj6PaXI-65" style="edgeStyle=orthogonalEdgeStyle;rounded=0;orthogonalLoop=1;jettySize=auto;html=1;entryX=0;entryY=0.5;entryDx=0;entryDy=0;dashed=1;" parent="1" source="Ak1ZEkQ7FC0WPa4JEUtc-171" target="SYf0jBdNwwrcCIj6PaXI-27" edge="1">
          <mxGeometry relative="1" as="geometry" />
        </mxCell>
        <mxCell id="Ak1ZEkQ7FC0WPa4JEUtc-171" value="行为事件&lt;br&gt;Event" style="rounded=0;whiteSpace=wrap;html=1;" parent="1" vertex="1">
          <mxGeometry x="-240" y="-1240" width="120" height="60" as="geometry" />
        </mxCell>
        <mxCell id="Ak1ZEkQ7FC0WPa4JEUtc-172" value="AlertFunction" style="rounded=0;whiteSpace=wrap;html=1;" parent="1" vertex="1">
          <mxGeometry x="440" y="-1290" width="120" height="60" as="geometry" />
        </mxCell>
        <mxCell id="Ak1ZEkQ7FC0WPa4JEUtc-180" value="流对应规则复制&lt;br&gt;&lt;div style=&quot;text-align: left&quot;&gt;&lt;span style=&quot;text-align: center&quot;&gt;PollRuleFunction&lt;/span&gt;&lt;/div&gt;" style="whiteSpace=wrap;html=1;rounded=0;" parent="1" vertex="1">
          <mxGeometry x="270" y="-1290" width="120" height="60" as="geometry" />
        </mxCell>
        <mxCell id="Ak1ZEkQ7FC0WPa4JEUtc-184" style="edgeStyle=orthogonalEdgeStyle;shape=connector;rounded=0;sketch=0;orthogonalLoop=1;jettySize=auto;html=1;exitX=1;exitY=0.5;exitDx=0;exitDy=0;entryX=0;entryY=0.5;entryDx=0;entryDy=0;labelBackgroundColor=default;fontFamily=Helvetica;fontSize=11;fontColor=default;endArrow=classic;strokeColor=default;" parent="1" source="Ak1ZEkQ7FC0WPa4JEUtc-180" target="Ak1ZEkQ7FC0WPa4JEUtc-172" edge="1">
          <mxGeometry relative="1" as="geometry">
            <mxPoint x="680" y="-1190" as="sourcePoint" />
          </mxGeometry>
        </mxCell>
        <mxCell id="Ak1ZEkQ7FC0WPa4JEUtc-187" value="自带规则发现功能" style="text;html=1;align=center;verticalAlign=middle;resizable=0;points=[];autosize=1;strokeColor=none;fillColor=none;fontSize=11;fontFamily=Helvetica;fontColor=default;" parent="1" vertex="1">
          <mxGeometry x="363" y="-1069" width="110" height="20" as="geometry" />
        </mxCell>
        <mxCell id="Ak1ZEkQ7FC0WPa4JEUtc-249" style="edgeStyle=orthogonalEdgeStyle;shape=connector;sketch=0;orthogonalLoop=1;jettySize=auto;html=1;entryX=0;entryY=0.5;entryDx=0;entryDy=0;labelBackgroundColor=default;fontFamily=Helvetica;fontSize=11;fontColor=default;endArrow=classic;strokeColor=default;rounded=0;" parent="1" source="Ak1ZEkQ7FC0WPa4JEUtc-196" target="Ak1ZEkQ7FC0WPa4JEUtc-244" edge="1">
          <mxGeometry relative="1" as="geometry" />
        </mxCell>
        <mxCell id="Ak1ZEkQ7FC0WPa4JEUtc-196" value="统计型模型" style="swimlane;rounded=0;shadow=0;glass=0;sketch=0;fontFamily=Helvetica;fontSize=11;fontColor=default;fillColor=none;opacity=60;" parent="1" vertex="1">
          <mxGeometry x="250" y="-1330" width="330" height="120" as="geometry" />
        </mxCell>
        <mxCell id="Ak1ZEkQ7FC0WPa4JEUtc-264" value="按KeyBy+RuleID分流" style="text;html=1;align=center;verticalAlign=middle;resizable=0;points=[];autosize=1;strokeColor=none;fillColor=none;fontSize=11;fontFamily=Helvetica;fontColor=default;" parent="Ak1ZEkQ7FC0WPa4JEUtc-196" vertex="1">
          <mxGeometry x="115" y="100" width="130" height="20" as="geometry" />
        </mxCell>
        <mxCell id="Ak1ZEkQ7FC0WPa4JEUtc-250" style="edgeStyle=orthogonalEdgeStyle;shape=connector;rounded=0;sketch=0;orthogonalLoop=1;jettySize=auto;html=1;exitX=1;exitY=0.5;exitDx=0;exitDy=0;entryX=0;entryY=0.5;entryDx=0;entryDy=0;labelBackgroundColor=default;fontFamily=Helvetica;fontSize=11;fontColor=default;endArrow=classic;strokeColor=default;" parent="1" source="Ak1ZEkQ7FC0WPa4JEUtc-200" target="Ak1ZEkQ7FC0WPa4JEUtc-244" edge="1">
          <mxGeometry relative="1" as="geometry" />
        </mxCell>
        <mxCell id="Ak1ZEkQ7FC0WPa4JEUtc-200" value="序列型模型" style="swimlane;rounded=0;shadow=0;glass=0;sketch=0;fontFamily=Helvetica;fontSize=11;fontColor=default;fillColor=none;opacity=60;swimlaneLine=1;" parent="1" vertex="1">
          <mxGeometry x="250" y="-1168" width="330" height="130" as="geometry">
            <mxRectangle x="250" y="-1168" width="90" height="23" as="alternateBounds" />
          </mxGeometry>
        </mxCell>
        <mxCell id="Ak1ZEkQ7FC0WPa4JEUtc-201" value="CEP&lt;br&gt;cepFunction" style="rounded=0;whiteSpace=wrap;html=1;" parent="Ak1ZEkQ7FC0WPa4JEUtc-200" vertex="1">
          <mxGeometry x="105" y="35" width="120" height="60" as="geometry" />
        </mxCell>
        <mxCell id="Ak1ZEkQ7FC0WPa4JEUtc-203" value="BROADCAST" style="edgeStyle=orthogonalEdgeStyle;shape=connector;sketch=0;orthogonalLoop=1;jettySize=auto;html=1;exitX=0.5;exitY=1;exitDx=0;exitDy=0;labelBackgroundColor=default;fontFamily=Helvetica;fontSize=11;fontColor=default;endArrow=classic;strokeColor=default;curved=1;dashed=1;entryX=0.5;entryY=0;entryDx=0;entryDy=0;" parent="1" source="Ak1ZEkQ7FC0WPa4JEUtc-202" target="SYf0jBdNwwrcCIj6PaXI-27" edge="1">
          <mxGeometry relative="1" as="geometry">
            <mxPoint x="50" y="-1310" as="targetPoint" />
          </mxGeometry>
        </mxCell>
        <mxCell id="Ak1ZEkQ7FC0WPa4JEUtc-204" style="edgeStyle=orthogonalEdgeStyle;shape=connector;rounded=0;sketch=0;orthogonalLoop=1;jettySize=auto;html=1;exitX=1;exitY=0.5;exitDx=0;exitDy=0;entryX=0.5;entryY=0;entryDx=0;entryDy=0;labelBackgroundColor=default;fontFamily=Helvetica;fontSize=11;fontColor=default;endArrow=classic;strokeColor=default;dashed=1;" parent="1" source="Ak1ZEkQ7FC0WPa4JEUtc-202" target="Ak1ZEkQ7FC0WPa4JEUtc-180" edge="1">
          <mxGeometry relative="1" as="geometry" />
        </mxCell>
        <mxCell id="Ak1ZEkQ7FC0WPa4JEUtc-205" style="edgeStyle=orthogonalEdgeStyle;shape=connector;rounded=0;sketch=0;orthogonalLoop=1;jettySize=auto;html=1;entryX=0.5;entryY=0;entryDx=0;entryDy=0;labelBackgroundColor=default;fontFamily=Helvetica;fontSize=11;fontColor=default;endArrow=classic;strokeColor=default;dashed=1;" parent="1" source="Ak1ZEkQ7FC0WPa4JEUtc-202" target="Ak1ZEkQ7FC0WPa4JEUtc-172" edge="1">
          <mxGeometry relative="1" as="geometry" />
        </mxCell>
        <mxCell id="Ak1ZEkQ7FC0WPa4JEUtc-206" value="BROADCAST" style="edgeLabel;html=1;align=center;verticalAlign=middle;resizable=0;points=[];fontSize=11;fontFamily=Helvetica;fontColor=default;" parent="Ak1ZEkQ7FC0WPa4JEUtc-205" vertex="1" connectable="0">
          <mxGeometry x="-0.5083" y="4" relative="1" as="geometry">
            <mxPoint y="3" as="offset" />
          </mxGeometry>
        </mxCell>
        <mxCell id="SYf0jBdNwwrcCIj6PaXI-53" value="只传入统计型的规则" style="edgeLabel;html=1;align=center;verticalAlign=middle;resizable=0;points=[];" parent="Ak1ZEkQ7FC0WPa4JEUtc-205" vertex="1" connectable="0">
          <mxGeometry x="-0.2625" relative="1" as="geometry">
            <mxPoint x="53" as="offset" />
          </mxGeometry>
        </mxCell>
        <mxCell id="SYf0jBdNwwrcCIj6PaXI-24" value="" style="edgeStyle=orthogonalEdgeStyle;rounded=0;orthogonalLoop=1;jettySize=auto;html=1;dashed=1;" parent="1" source="Ak1ZEkQ7FC0WPa4JEUtc-202" target="SYf0jBdNwwrcCIj6PaXI-11" edge="1">
          <mxGeometry relative="1" as="geometry" />
        </mxCell>
        <mxCell id="Ak1ZEkQ7FC0WPa4JEUtc-202" value="规则流&lt;br&gt;RuleSource" style="rounded=0;whiteSpace=wrap;html=1;" parent="1" vertex="1">
          <mxGeometry x="-10" y="-1410" width="120" height="60" as="geometry" />
        </mxCell>
        <mxCell id="Ak1ZEkQ7FC0WPa4JEUtc-211" value="KeyByBean&#xa;数据模型" style="shape=table;startSize=45;container=1;collapsible=0;childLayout=tableLayout;rounded=0;shadow=0;comic=0;sketch=0;labelBorderColor=none;" parent="1" vertex="1">
          <mxGeometry x="-76" y="-960" width="216" height="170" as="geometry" />
        </mxCell>
        <mxCell id="Ak1ZEkQ7FC0WPa4JEUtc-212" value="" style="shape=tableRow;horizontal=0;startSize=0;swimlaneHead=0;swimlaneBody=0;top=0;left=0;bottom=0;right=0;collapsible=0;dropTarget=0;fillColor=none;points=[[0,0.5],[1,0.5]];portConstraint=eastwest;rounded=0;shadow=0;comic=0;sketch=0;" parent="Ak1ZEkQ7FC0WPa4JEUtc-211" vertex="1">
          <mxGeometry y="45" width="216" height="41" as="geometry" />
        </mxCell>
        <mxCell id="Ak1ZEkQ7FC0WPa4JEUtc-213" value="&lt;span&gt;Event&lt;/span&gt;" style="shape=partialRectangle;html=1;whiteSpace=wrap;connectable=0;overflow=hidden;fillColor=none;top=0;left=0;bottom=0;right=0;pointerEvents=1;rounded=0;shadow=0;comic=0;sketch=0;startSize=0;" parent="Ak1ZEkQ7FC0WPa4JEUtc-212" vertex="1">
          <mxGeometry width="72" height="41" as="geometry">
            <mxRectangle width="72" height="41" as="alternateBounds" />
          </mxGeometry>
        </mxCell>
        <mxCell id="Ak1ZEkQ7FC0WPa4JEUtc-214" value="&lt;span&gt;E&lt;/span&gt;" style="shape=partialRectangle;html=1;whiteSpace=wrap;connectable=0;overflow=hidden;fillColor=none;top=0;left=0;bottom=0;right=0;pointerEvents=1;rounded=0;shadow=0;comic=0;sketch=0;startSize=0;" parent="Ak1ZEkQ7FC0WPa4JEUtc-212" vertex="1">
          <mxGeometry x="72" width="72" height="41" as="geometry">
            <mxRectangle width="72" height="41" as="alternateBounds" />
          </mxGeometry>
        </mxCell>
        <mxCell id="Ak1ZEkQ7FC0WPa4JEUtc-215" value="&lt;span&gt;事件&lt;/span&gt;" style="shape=partialRectangle;html=1;whiteSpace=wrap;connectable=0;overflow=hidden;fillColor=none;top=0;left=0;bottom=0;right=0;pointerEvents=1;rounded=0;shadow=0;comic=0;sketch=0;startSize=0;" parent="Ak1ZEkQ7FC0WPa4JEUtc-212" vertex="1">
          <mxGeometry x="144" width="72" height="41" as="geometry">
            <mxRectangle width="72" height="41" as="alternateBounds" />
          </mxGeometry>
        </mxCell>
        <mxCell id="Ak1ZEkQ7FC0WPa4JEUtc-216" value="" style="shape=tableRow;horizontal=0;startSize=0;swimlaneHead=0;swimlaneBody=0;top=0;left=0;bottom=0;right=0;collapsible=0;dropTarget=0;fillColor=none;points=[[0,0.5],[1,0.5]];portConstraint=eastwest;rounded=0;shadow=0;comic=0;sketch=0;" parent="Ak1ZEkQ7FC0WPa4JEUtc-211" vertex="1">
          <mxGeometry y="86" width="216" height="42" as="geometry" />
        </mxCell>
        <mxCell id="Ak1ZEkQ7FC0WPa4JEUtc-217" value="&lt;span&gt;KeyBy&lt;/span&gt;" style="shape=partialRectangle;html=1;whiteSpace=wrap;connectable=0;overflow=hidden;fillColor=none;top=0;left=0;bottom=0;right=0;pointerEvents=1;rounded=0;shadow=0;comic=0;sketch=0;startSize=0;" parent="Ak1ZEkQ7FC0WPa4JEUtc-216" vertex="1">
          <mxGeometry width="72" height="42" as="geometry">
            <mxRectangle width="72" height="42" as="alternateBounds" />
          </mxGeometry>
        </mxCell>
        <mxCell id="Ak1ZEkQ7FC0WPa4JEUtc-218" value="String" style="shape=partialRectangle;html=1;whiteSpace=wrap;connectable=0;overflow=hidden;fillColor=none;top=0;left=0;bottom=0;right=0;pointerEvents=1;rounded=0;shadow=0;comic=0;sketch=0;startSize=0;" parent="Ak1ZEkQ7FC0WPa4JEUtc-216" vertex="1">
          <mxGeometry x="72" width="72" height="42" as="geometry">
            <mxRectangle width="72" height="42" as="alternateBounds" />
          </mxGeometry>
        </mxCell>
        <mxCell id="Ak1ZEkQ7FC0WPa4JEUtc-219" value="{K=V}格式" style="shape=partialRectangle;html=1;whiteSpace=wrap;connectable=0;overflow=hidden;fillColor=none;top=0;left=0;bottom=0;right=0;pointerEvents=1;rounded=0;shadow=0;comic=0;sketch=0;startSize=0;" parent="Ak1ZEkQ7FC0WPa4JEUtc-216" vertex="1">
          <mxGeometry x="144" width="72" height="42" as="geometry">
            <mxRectangle width="72" height="42" as="alternateBounds" />
          </mxGeometry>
        </mxCell>
        <mxCell id="LXLAwQbz6SZ5smUnw5JU-3" style="shape=tableRow;horizontal=0;startSize=0;swimlaneHead=0;swimlaneBody=0;top=0;left=0;bottom=0;right=0;collapsible=0;dropTarget=0;fillColor=none;points=[[0,0.5],[1,0.5]];portConstraint=eastwest;rounded=0;shadow=0;comic=0;sketch=0;" parent="Ak1ZEkQ7FC0WPa4JEUtc-211" vertex="1">
          <mxGeometry y="128" width="216" height="42" as="geometry" />
        </mxCell>
        <mxCell id="LXLAwQbz6SZ5smUnw5JU-4" value="ruleModel" style="shape=partialRectangle;html=1;whiteSpace=wrap;connectable=0;overflow=hidden;fillColor=none;top=0;left=0;bottom=0;right=0;pointerEvents=1;rounded=0;shadow=0;comic=0;sketch=0;startSize=0;" parent="LXLAwQbz6SZ5smUnw5JU-3" vertex="1">
          <mxGeometry width="72" height="42" as="geometry">
            <mxRectangle width="72" height="42" as="alternateBounds" />
          </mxGeometry>
        </mxCell>
        <mxCell id="LXLAwQbz6SZ5smUnw5JU-5" value="&lt;span&gt;RuleModel&lt;/span&gt;" style="shape=partialRectangle;html=1;whiteSpace=wrap;connectable=0;overflow=hidden;fillColor=none;top=0;left=0;bottom=0;right=0;pointerEvents=1;rounded=0;shadow=0;comic=0;sketch=0;startSize=0;" parent="LXLAwQbz6SZ5smUnw5JU-3" vertex="1">
          <mxGeometry x="72" width="72" height="42" as="geometry">
            <mxRectangle width="72" height="42" as="alternateBounds" />
          </mxGeometry>
        </mxCell>
        <mxCell id="LXLAwQbz6SZ5smUnw5JU-6" value="标识是序列型还是统计型" style="shape=partialRectangle;html=1;whiteSpace=wrap;connectable=0;overflow=hidden;fillColor=none;top=0;left=0;bottom=0;right=0;pointerEvents=1;rounded=0;shadow=0;comic=0;sketch=0;startSize=0;" parent="LXLAwQbz6SZ5smUnw5JU-3" vertex="1">
          <mxGeometry x="144" width="72" height="42" as="geometry">
            <mxRectangle width="72" height="42" as="alternateBounds" />
          </mxGeometry>
        </mxCell>
        <mxCell id="Ak1ZEkQ7FC0WPa4JEUtc-236" value="" style="endArrow=classic;html=1;dashed=1;labelBackgroundColor=default;sketch=0;fontFamily=Helvetica;fontSize=11;fontColor=default;strokeColor=default;shape=connector;curved=1;entryX=0.5;entryY=0;entryDx=0;entryDy=0;" parent="1" target="9HWVBvcTGCDn2XjVBNJA-212" edge="1">
          <mxGeometry width="50" height="50" relative="1" as="geometry">
            <mxPoint x="410" y="-1260" as="sourcePoint" />
            <mxPoint x="310" y="-940" as="targetPoint" />
            <Array as="points">
              <mxPoint x="310" y="-1080" />
              <mxPoint x="280" y="-1010" />
            </Array>
          </mxGeometry>
        </mxCell>
        <mxCell id="Ak1ZEkQ7FC0WPa4JEUtc-237" value="keyByStream" style="text;html=1;align=center;verticalAlign=middle;resizable=0;points=[];autosize=1;strokeColor=none;fillColor=none;fontSize=11;fontFamily=Helvetica;fontColor=default;" parent="1" vertex="1">
          <mxGeometry x="225" y="-1199" width="90" height="20" as="geometry" />
        </mxCell>
        <mxCell id="Ak1ZEkQ7FC0WPa4JEUtc-238" value="" style="curved=1;endArrow=classic;html=1;dashed=1;labelBackgroundColor=default;sketch=0;fontFamily=Helvetica;fontSize=11;fontColor=default;strokeColor=default;shape=connector;entryX=0.5;entryY=0;entryDx=0;entryDy=0;" parent="1" target="9HWVBvcTGCDn2XjVBNJA-236" edge="1">
          <mxGeometry width="50" height="50" relative="1" as="geometry">
            <mxPoint x="660" y="-1180" as="sourcePoint" />
            <mxPoint x="710" y="-1080" as="targetPoint" />
            <Array as="points">
              <mxPoint x="660" y="-1080" />
            </Array>
          </mxGeometry>
        </mxCell>
        <mxCell id="Ak1ZEkQ7FC0WPa4JEUtc-245" style="edgeStyle=orthogonalEdgeStyle;sketch=0;orthogonalLoop=1;jettySize=auto;html=1;labelBackgroundColor=default;fontFamily=Helvetica;fontSize=11;fontColor=default;endArrow=classic;strokeColor=default;rounded=0;entryX=0;entryY=0.5;entryDx=0;entryDy=0;" parent="1" source="Ak1ZEkQ7FC0WPa4JEUtc-244" target="Ak1ZEkQ7FC0WPa4JEUtc-169" edge="1">
          <mxGeometry relative="1" as="geometry">
            <mxPoint x="900" y="-1183" as="targetPoint" />
          </mxGeometry>
        </mxCell>
        <mxCell id="Ak1ZEkQ7FC0WPa4JEUtc-244" value="双流合并+与或关系&lt;br&gt;CoGroup" style="rounded=0;whiteSpace=wrap;html=1;" parent="1" vertex="1">
          <mxGeometry x="707" y="-1213" width="120" height="60" as="geometry" />
        </mxCell>
        <mxCell id="Ak1ZEkQ7FC0WPa4JEUtc-259" value="" style="edgeStyle=orthogonalEdgeStyle;rounded=0;sketch=0;orthogonalLoop=1;jettySize=auto;html=1;labelBackgroundColor=default;fontFamily=Helvetica;fontSize=11;fontColor=default;endArrow=classic;strokeColor=default;" parent="1" source="Ak1ZEkQ7FC0WPa4JEUtc-251" target="Ak1ZEkQ7FC0WPa4JEUtc-258" edge="1">
          <mxGeometry relative="1" as="geometry" />
        </mxCell>
        <mxCell id="Ak1ZEkQ7FC0WPa4JEUtc-261" value="" style="edgeStyle=orthogonalEdgeStyle;rounded=0;sketch=0;orthogonalLoop=1;jettySize=auto;html=1;labelBackgroundColor=default;fontFamily=Helvetica;fontSize=11;fontColor=default;endArrow=classic;strokeColor=default;" parent="1" source="Ak1ZEkQ7FC0WPa4JEUtc-251" target="Ak1ZEkQ7FC0WPa4JEUtc-260" edge="1">
          <mxGeometry relative="1" as="geometry" />
        </mxCell>
        <mxCell id="Ak1ZEkQ7FC0WPa4JEUtc-251" value="Cogroup逻辑" style="rounded=0;whiteSpace=wrap;html=1;shadow=0;glass=0;labelBackgroundColor=none;labelBorderColor=none;comic=0;sketch=0;fontFamily=Helvetica;fontSize=11;fontColor=default;fillColor=none;opacity=60;" parent="1" vertex="1">
          <mxGeometry x="100" y="-274" width="120" height="60" as="geometry" />
        </mxCell>
        <mxCell id="Ak1ZEkQ7FC0WPa4JEUtc-253" value="" style="endArrow=classic;html=1;rounded=0;labelBackgroundColor=default;sketch=0;fontFamily=Helvetica;fontSize=11;fontColor=default;strokeColor=default;entryX=0;entryY=0.5;entryDx=0;entryDy=0;" parent="1" target="Ak1ZEkQ7FC0WPa4JEUtc-251" edge="1">
          <mxGeometry width="50" height="50" relative="1" as="geometry">
            <mxPoint y="-284" as="sourcePoint" />
            <mxPoint x="70" y="-344" as="targetPoint" />
          </mxGeometry>
        </mxCell>
        <mxCell id="Ak1ZEkQ7FC0WPa4JEUtc-254" value="" style="endArrow=classic;html=1;rounded=0;labelBackgroundColor=default;sketch=0;fontFamily=Helvetica;fontSize=11;fontColor=default;strokeColor=default;entryX=0;entryY=0.5;entryDx=0;entryDy=0;" parent="1" target="Ak1ZEkQ7FC0WPa4JEUtc-251" edge="1">
          <mxGeometry width="50" height="50" relative="1" as="geometry">
            <mxPoint y="-204" as="sourcePoint" />
            <mxPoint x="30" y="-214" as="targetPoint" />
          </mxGeometry>
        </mxCell>
        <mxCell id="Ak1ZEkQ7FC0WPa4JEUtc-255" value="KeyStream" style="text;html=1;align=center;verticalAlign=middle;resizable=0;points=[];autosize=1;strokeColor=none;fillColor=none;fontSize=11;fontFamily=Helvetica;fontColor=default;" parent="1" vertex="1">
          <mxGeometry x="15" y="-304" width="70" height="20" as="geometry" />
        </mxCell>
        <mxCell id="Ak1ZEkQ7FC0WPa4JEUtc-256" value="KeyStream" style="text;html=1;align=center;verticalAlign=middle;resizable=0;points=[];autosize=1;strokeColor=none;fillColor=none;fontSize=11;fontFamily=Helvetica;fontColor=default;" parent="1" vertex="1">
          <mxGeometry x="15" y="-204" width="70" height="20" as="geometry" />
        </mxCell>
        <mxCell id="Ak1ZEkQ7FC0WPa4JEUtc-258" value="左右流都能匹配&lt;br&gt;（不需要判断与或关系，因为肯定都满足）" style="rounded=0;whiteSpace=wrap;html=1;shadow=0;glass=0;labelBackgroundColor=none;labelBorderColor=none;comic=0;sketch=0;fontFamily=Helvetica;fontSize=11;fontColor=default;fillColor=none;opacity=60;" parent="1" vertex="1">
          <mxGeometry x="285" y="-324" width="355" height="50" as="geometry" />
        </mxCell>
        <mxCell id="Ak1ZEkQ7FC0WPa4JEUtc-260" value="左右流只有一个能匹配&lt;br&gt;（从RuleID提取与或字段，与的话不满足，或的话满足）" style="whiteSpace=wrap;html=1;fontSize=11;fillColor=none;rounded=0;shadow=0;glass=0;labelBackgroundColor=none;labelBorderColor=none;comic=0;sketch=0;opacity=60;" parent="1" vertex="1">
          <mxGeometry x="285" y="-214" width="355" height="60" as="geometry" />
        </mxCell>
        <mxCell id="Ak1ZEkQ7FC0WPa4JEUtc-269" value="Tuple2&lt;&gt;&#xa;数据模型" style="shape=table;startSize=45;container=1;collapsible=0;childLayout=tableLayout;rounded=0;shadow=0;comic=0;sketch=0;labelBorderColor=none;" parent="1" vertex="1">
          <mxGeometry x="480" y="-960" width="180" height="117" as="geometry" />
        </mxCell>
        <mxCell id="Ak1ZEkQ7FC0WPa4JEUtc-270" value="" style="shape=tableRow;horizontal=0;startSize=0;swimlaneHead=0;swimlaneBody=0;top=0;left=0;bottom=0;right=0;collapsible=0;dropTarget=0;fillColor=none;points=[[0,0.5],[1,0.5]];portConstraint=eastwest;rounded=0;shadow=0;comic=0;sketch=0;" parent="Ak1ZEkQ7FC0WPa4JEUtc-269" vertex="1">
          <mxGeometry y="45" width="180" height="35" as="geometry" />
        </mxCell>
        <mxCell id="Ak1ZEkQ7FC0WPa4JEUtc-271" value="&lt;span&gt;Event&lt;/span&gt;" style="shape=partialRectangle;html=1;whiteSpace=wrap;connectable=0;overflow=hidden;fillColor=none;top=0;left=0;bottom=0;right=0;pointerEvents=1;rounded=0;shadow=0;comic=0;sketch=0;startSize=0;" parent="Ak1ZEkQ7FC0WPa4JEUtc-270" vertex="1">
          <mxGeometry width="60" height="35" as="geometry">
            <mxRectangle width="60" height="35" as="alternateBounds" />
          </mxGeometry>
        </mxCell>
        <mxCell id="Ak1ZEkQ7FC0WPa4JEUtc-272" value="&lt;span&gt;T&lt;/span&gt;" style="shape=partialRectangle;html=1;whiteSpace=wrap;connectable=0;overflow=hidden;fillColor=none;top=0;left=0;bottom=0;right=0;pointerEvents=1;rounded=0;shadow=0;comic=0;sketch=0;startSize=0;" parent="Ak1ZEkQ7FC0WPa4JEUtc-270" vertex="1">
          <mxGeometry x="60" width="60" height="35" as="geometry">
            <mxRectangle width="60" height="35" as="alternateBounds" />
          </mxGeometry>
        </mxCell>
        <mxCell id="Ak1ZEkQ7FC0WPa4JEUtc-273" value="&lt;span&gt;事件&lt;/span&gt;" style="shape=partialRectangle;html=1;whiteSpace=wrap;connectable=0;overflow=hidden;fillColor=none;top=0;left=0;bottom=0;right=0;pointerEvents=1;rounded=0;shadow=0;comic=0;sketch=0;startSize=0;" parent="Ak1ZEkQ7FC0WPa4JEUtc-270" vertex="1">
          <mxGeometry x="120" width="60" height="35" as="geometry">
            <mxRectangle width="60" height="35" as="alternateBounds" />
          </mxGeometry>
        </mxCell>
        <mxCell id="Ak1ZEkQ7FC0WPa4JEUtc-274" value="" style="shape=tableRow;horizontal=0;startSize=0;swimlaneHead=0;swimlaneBody=0;top=0;left=0;bottom=0;right=0;collapsible=0;dropTarget=0;fillColor=none;points=[[0,0.5],[1,0.5]];portConstraint=eastwest;rounded=0;shadow=0;comic=0;sketch=0;" parent="Ak1ZEkQ7FC0WPa4JEUtc-269" vertex="1">
          <mxGeometry y="80" width="180" height="37" as="geometry" />
        </mxCell>
        <mxCell id="Ak1ZEkQ7FC0WPa4JEUtc-275" value="&lt;span&gt;RuleId&lt;/span&gt;" style="shape=partialRectangle;html=1;whiteSpace=wrap;connectable=0;overflow=hidden;fillColor=none;top=0;left=0;bottom=0;right=0;pointerEvents=1;rounded=0;shadow=0;comic=0;sketch=0;startSize=0;" parent="Ak1ZEkQ7FC0WPa4JEUtc-274" vertex="1">
          <mxGeometry width="60" height="37" as="geometry">
            <mxRectangle width="60" height="37" as="alternateBounds" />
          </mxGeometry>
        </mxCell>
        <mxCell id="Ak1ZEkQ7FC0WPa4JEUtc-276" value="String" style="shape=partialRectangle;html=1;whiteSpace=wrap;connectable=0;overflow=hidden;fillColor=none;top=0;left=0;bottom=0;right=0;pointerEvents=1;rounded=0;shadow=0;comic=0;sketch=0;startSize=0;" parent="Ak1ZEkQ7FC0WPa4JEUtc-274" vertex="1">
          <mxGeometry x="60" width="60" height="37" as="geometry">
            <mxRectangle width="60" height="37" as="alternateBounds" />
          </mxGeometry>
        </mxCell>
        <mxCell id="Ak1ZEkQ7FC0WPa4JEUtc-277" value="&lt;span&gt;规则ID&lt;/span&gt;" style="shape=partialRectangle;html=1;whiteSpace=wrap;connectable=0;overflow=hidden;fillColor=none;top=0;left=0;bottom=0;right=0;pointerEvents=1;rounded=0;shadow=0;comic=0;sketch=0;startSize=0;" parent="Ak1ZEkQ7FC0WPa4JEUtc-274" vertex="1">
          <mxGeometry x="120" width="60" height="37" as="geometry">
            <mxRectangle width="60" height="37" as="alternateBounds" />
          </mxGeometry>
        </mxCell>
        <mxCell id="Ak1ZEkQ7FC0WPa4JEUtc-283" value="" style="curved=1;endArrow=classic;html=1;labelBackgroundColor=default;sketch=0;fontFamily=Helvetica;fontSize=11;fontColor=default;strokeColor=default;exitX=1;exitY=0.75;exitDx=0;exitDy=0;entryX=0.5;entryY=0;entryDx=0;entryDy=0;dashed=1;" parent="1" source="Ak1ZEkQ7FC0WPa4JEUtc-201" target="Ak1ZEkQ7FC0WPa4JEUtc-269" edge="1">
          <mxGeometry width="50" height="50" relative="1" as="geometry">
            <mxPoint x="480" y="-970" as="sourcePoint" />
            <mxPoint x="530" y="-1020" as="targetPoint" />
            <Array as="points">
              <mxPoint x="500" y="-1000" />
            </Array>
          </mxGeometry>
        </mxCell>
        <mxCell id="SYf0jBdNwwrcCIj6PaXI-22" value="" style="edgeStyle=orthogonalEdgeStyle;rounded=0;orthogonalLoop=1;jettySize=auto;html=1;dashed=1;" parent="1" source="LXLAwQbz6SZ5smUnw5JU-42" target="SYf0jBdNwwrcCIj6PaXI-4" edge="1">
          <mxGeometry relative="1" as="geometry" />
        </mxCell>
        <mxCell id="LXLAwQbz6SZ5smUnw5JU-42" value="统计型规则表" style="shape=ext;double=1;whiteSpace=wrap;html=1;rounded=0;shadow=0;glass=0;sketch=0;" parent="1" vertex="1">
          <mxGeometry x="-87" y="-1550" width="110" height="50" as="geometry" />
        </mxCell>
        <mxCell id="SYf0jBdNwwrcCIj6PaXI-23" value="" style="edgeStyle=orthogonalEdgeStyle;rounded=0;orthogonalLoop=1;jettySize=auto;html=1;dashed=1;" parent="1" source="LXLAwQbz6SZ5smUnw5JU-43" target="SYf0jBdNwwrcCIj6PaXI-8" edge="1">
          <mxGeometry relative="1" as="geometry" />
        </mxCell>
        <mxCell id="LXLAwQbz6SZ5smUnw5JU-43" value="序列型规则表" style="shape=ext;double=1;whiteSpace=wrap;html=1;rounded=0;shadow=0;glass=0;sketch=0;" parent="1" vertex="1">
          <mxGeometry x="74" y="-1550" width="110" height="50" as="geometry" />
        </mxCell>
        <mxCell id="LXLAwQbz6SZ5smUnw5JU-45" style="edgeStyle=orthogonalEdgeStyle;rounded=0;orthogonalLoop=1;jettySize=auto;html=1;exitX=0.5;exitY=1;exitDx=0;exitDy=0;entryX=0.5;entryY=0;entryDx=0;entryDy=0;" parent="1" target="Ak1ZEkQ7FC0WPa4JEUtc-202" edge="1">
          <mxGeometry relative="1" as="geometry">
            <mxPoint x="50" y="-1500" as="sourcePoint" />
          </mxGeometry>
        </mxCell>
        <mxCell id="LXLAwQbz6SZ5smUnw5JU-49" value="" style="edgeStyle=orthogonalEdgeStyle;rounded=0;orthogonalLoop=1;jettySize=auto;html=1;" parent="1" target="Ak1ZEkQ7FC0WPa4JEUtc-202" edge="1">
          <mxGeometry relative="1" as="geometry">
            <mxPoint x="50" y="-1470" as="sourcePoint" />
          </mxGeometry>
        </mxCell>
        <mxCell id="LXLAwQbz6SZ5smUnw5JU-48" value="轮询" style="shape=image;html=1;verticalAlign=top;verticalLabelPosition=bottom;labelBackgroundColor=#ffffff;imageAspect=0;aspect=fixed;image=https://cdn4.iconfinder.com/data/icons/evil-icons-user-interface/64/download-128.png;rounded=0;shadow=0;glass=0;sketch=0;" parent="1" vertex="1">
          <mxGeometry x="22.5" y="-1552.5" width="55" height="55" as="geometry" />
        </mxCell>
        <mxCell id="SYf0jBdNwwrcCIj6PaXI-2" value="统计型KeyBy" style="swimlane;fontStyle=0;childLayout=stackLayout;horizontal=1;startSize=30;horizontalStack=0;resizeParent=1;resizeParentMax=0;resizeLast=0;collapsible=1;marginBottom=0;" parent="1" vertex="1" collapsed="1">
          <mxGeometry x="-220" y="-1560" width="100" height="30" as="geometry">
            <mxRectangle x="-220" y="-1560" width="100" height="120" as="alternateBounds" />
          </mxGeometry>
        </mxCell>
        <mxCell id="SYf0jBdNwwrcCIj6PaXI-3" value="rule |  keyBy" style="text;strokeColor=none;fillColor=none;align=left;verticalAlign=middle;spacingLeft=4;spacingRight=4;overflow=hidden;points=[[0,0.5],[1,0.5]];portConstraint=eastwest;rotatable=0;" parent="SYf0jBdNwwrcCIj6PaXI-2" vertex="1">
          <mxGeometry y="30" width="100" height="30" as="geometry" />
        </mxCell>
        <mxCell id="SYf0jBdNwwrcCIj6PaXI-4" value="1 |  A" style="text;strokeColor=none;fillColor=none;align=left;verticalAlign=middle;spacingLeft=4;spacingRight=4;overflow=hidden;points=[[0,0.5],[1,0.5]];portConstraint=eastwest;rotatable=0;" parent="SYf0jBdNwwrcCIj6PaXI-2" vertex="1">
          <mxGeometry y="60" width="100" height="30" as="geometry" />
        </mxCell>
        <mxCell id="SYf0jBdNwwrcCIj6PaXI-5" value="2 |  B" style="text;strokeColor=none;fillColor=none;align=left;verticalAlign=middle;spacingLeft=4;spacingRight=4;overflow=hidden;points=[[0,0.5],[1,0.5]];portConstraint=eastwest;rotatable=0;" parent="SYf0jBdNwwrcCIj6PaXI-2" vertex="1">
          <mxGeometry y="90" width="100" height="30" as="geometry" />
        </mxCell>
        <mxCell id="SYf0jBdNwwrcCIj6PaXI-6" value="序列型KeyBy" style="swimlane;fontStyle=0;childLayout=stackLayout;horizontal=1;startSize=30;horizontalStack=0;resizeParent=1;resizeParentMax=0;resizeLast=0;collapsible=1;marginBottom=0;" parent="1" vertex="1" collapsed="1">
          <mxGeometry x="220" y="-1560" width="100" height="30" as="geometry">
            <mxRectangle x="220" y="-1560" width="110" height="120" as="alternateBounds" />
          </mxGeometry>
        </mxCell>
        <mxCell id="SYf0jBdNwwrcCIj6PaXI-7" value="rule |  keyBy" style="text;strokeColor=none;fillColor=none;align=left;verticalAlign=middle;spacingLeft=4;spacingRight=4;overflow=hidden;points=[[0,0.5],[1,0.5]];portConstraint=eastwest;rotatable=0;" parent="SYf0jBdNwwrcCIj6PaXI-6" vertex="1">
          <mxGeometry y="30" width="110" height="30" as="geometry" />
        </mxCell>
        <mxCell id="SYf0jBdNwwrcCIj6PaXI-8" value="1 |  A" style="text;strokeColor=none;fillColor=none;align=left;verticalAlign=middle;spacingLeft=4;spacingRight=4;overflow=hidden;points=[[0,0.5],[1,0.5]];portConstraint=eastwest;rotatable=0;" parent="SYf0jBdNwwrcCIj6PaXI-6" vertex="1">
          <mxGeometry y="60" width="110" height="30" as="geometry" />
        </mxCell>
        <mxCell id="SYf0jBdNwwrcCIj6PaXI-9" value="3 |  C" style="text;strokeColor=none;fillColor=none;align=left;verticalAlign=middle;spacingLeft=4;spacingRight=4;overflow=hidden;points=[[0,0.5],[1,0.5]];portConstraint=eastwest;rotatable=0;" parent="SYf0jBdNwwrcCIj6PaXI-6" vertex="1">
          <mxGeometry y="90" width="110" height="30" as="geometry" />
        </mxCell>
        <mxCell id="SYf0jBdNwwrcCIj6PaXI-10" value="汇总KeyBy" style="swimlane;fontStyle=0;childLayout=stackLayout;horizontal=1;startSize=30;horizontalStack=0;resizeParent=1;resizeParentMax=0;resizeLast=0;collapsible=1;marginBottom=0;" parent="1" vertex="1" collapsed="1">
          <mxGeometry x="-150" y="-1410" width="100" height="30" as="geometry">
            <mxRectangle x="-360" y="-1430" width="110" height="150" as="alternateBounds" />
          </mxGeometry>
        </mxCell>
        <mxCell id="SYf0jBdNwwrcCIj6PaXI-11" value="rule |  keyBy" style="text;strokeColor=none;fillColor=none;align=left;verticalAlign=middle;spacingLeft=4;spacingRight=4;overflow=hidden;points=[[0,0.5],[1,0.5]];portConstraint=eastwest;rotatable=0;" parent="SYf0jBdNwwrcCIj6PaXI-10" vertex="1">
          <mxGeometry y="30" width="110" height="30" as="geometry" />
        </mxCell>
        <mxCell id="SYf0jBdNwwrcCIj6PaXI-12" value="1 |  A" style="text;strokeColor=none;fillColor=none;align=left;verticalAlign=middle;spacingLeft=4;spacingRight=4;overflow=hidden;points=[[0,0.5],[1,0.5]];portConstraint=eastwest;rotatable=0;" parent="SYf0jBdNwwrcCIj6PaXI-10" vertex="1">
          <mxGeometry y="60" width="110" height="30" as="geometry" />
        </mxCell>
        <mxCell id="SYf0jBdNwwrcCIj6PaXI-13" value="2 |  B" style="text;strokeColor=none;fillColor=none;align=left;verticalAlign=middle;spacingLeft=4;spacingRight=4;overflow=hidden;points=[[0,0.5],[1,0.5]];portConstraint=eastwest;rotatable=0;" parent="SYf0jBdNwwrcCIj6PaXI-10" vertex="1">
          <mxGeometry y="90" width="110" height="30" as="geometry" />
        </mxCell>
        <mxCell id="SYf0jBdNwwrcCIj6PaXI-20" value="3 |  C" style="text;strokeColor=none;fillColor=none;align=left;verticalAlign=middle;spacingLeft=4;spacingRight=4;overflow=hidden;points=[[0,0.5],[1,0.5]];portConstraint=eastwest;rotatable=0;" parent="SYf0jBdNwwrcCIj6PaXI-10" vertex="1">
          <mxGeometry y="120" width="110" height="30" as="geometry" />
        </mxCell>
        <mxCell id="SYf0jBdNwwrcCIj6PaXI-27" value="KeyBy字段分流&#xa;KeyByFunction" style="swimlane;startSize=40;" parent="1" vertex="1">
          <mxGeometry x="-30" y="-1280" width="160" height="140" as="geometry" />
        </mxCell>
        <mxCell id="SYf0jBdNwwrcCIj6PaXI-34" value="" style="group" parent="SYf0jBdNwwrcCIj6PaXI-27" vertex="1" connectable="0">
          <mxGeometry x="20" y="50" width="120" height="80" as="geometry" />
        </mxCell>
        <mxCell id="SYf0jBdNwwrcCIj6PaXI-28" value="共用KeyBy" style="whiteSpace=wrap;html=1;flipV=1;flipH=0;" parent="SYf0jBdNwwrcCIj6PaXI-34" vertex="1">
          <mxGeometry y="30" width="120" height="20" as="geometry" />
        </mxCell>
        <mxCell id="SYf0jBdNwwrcCIj6PaXI-32" value="仅序列型KeyBy" style="whiteSpace=wrap;html=1;flipV=1;flipH=0;" parent="SYf0jBdNwwrcCIj6PaXI-34" vertex="1">
          <mxGeometry y="60" width="120" height="20" as="geometry" />
        </mxCell>
        <mxCell id="SYf0jBdNwwrcCIj6PaXI-33" value="仅统计型KeyBy" style="whiteSpace=wrap;html=1;flipV=1;flipH=0;" parent="SYf0jBdNwwrcCIj6PaXI-34" vertex="1">
          <mxGeometry width="120" height="20" as="geometry" />
        </mxCell>
        <mxCell id="SYf0jBdNwwrcCIj6PaXI-55" style="edgeStyle=orthogonalEdgeStyle;rounded=0;orthogonalLoop=1;jettySize=auto;html=1;exitX=1;exitY=0.25;exitDx=0;exitDy=0;dashed=1;entryX=0;entryY=0.5;entryDx=0;entryDy=0;" parent="1" source="SYf0jBdNwwrcCIj6PaXI-33" target="Ak1ZEkQ7FC0WPa4JEUtc-196" edge="1">
          <mxGeometry relative="1" as="geometry">
            <mxPoint x="250" y="-1225" as="targetPoint" />
          </mxGeometry>
        </mxCell>
        <mxCell id="SYf0jBdNwwrcCIj6PaXI-56" value="侧流" style="edgeLabel;html=1;align=center;verticalAlign=middle;resizable=0;points=[];" parent="SYf0jBdNwwrcCIj6PaXI-55" vertex="1" connectable="0">
          <mxGeometry x="-0.1143" y="2" relative="1" as="geometry">
            <mxPoint x="-3" y="-3" as="offset" />
          </mxGeometry>
        </mxCell>
        <mxCell id="SYf0jBdNwwrcCIj6PaXI-57" style="edgeStyle=orthogonalEdgeStyle;rounded=0;orthogonalLoop=1;jettySize=auto;html=1;exitX=1;exitY=0.5;exitDx=0;exitDy=0;entryX=0;entryY=0.5;entryDx=0;entryDy=0;dashed=1;" parent="1" source="SYf0jBdNwwrcCIj6PaXI-32" target="Ak1ZEkQ7FC0WPa4JEUtc-200" edge="1">
          <mxGeometry relative="1" as="geometry" />
        </mxCell>
        <mxCell id="SYf0jBdNwwrcCIj6PaXI-58" value="侧流" style="edgeLabel;html=1;align=center;verticalAlign=middle;resizable=0;points=[];" parent="SYf0jBdNwwrcCIj6PaXI-57" vertex="1" connectable="0">
          <mxGeometry x="-0.1675" y="-2" relative="1" as="geometry">
            <mxPoint as="offset" />
          </mxGeometry>
        </mxCell>
        <mxCell id="SYf0jBdNwwrcCIj6PaXI-66" value="" style="edgeStyle=orthogonalEdgeStyle;rounded=0;orthogonalLoop=1;jettySize=auto;html=1;endArrow=none;shape=link;width=20;" parent="1" source="SYf0jBdNwwrcCIj6PaXI-28" edge="1">
          <mxGeometry relative="1" as="geometry">
            <mxPoint x="-20" y="-1190" as="sourcePoint" />
            <mxPoint x="210" y="-1190" as="targetPoint" />
          </mxGeometry>
        </mxCell>
        <mxCell id="SYf0jBdNwwrcCIj6PaXI-68" value="主流" style="edgeLabel;html=1;align=center;verticalAlign=middle;resizable=0;points=[];" parent="SYf0jBdNwwrcCIj6PaXI-66" vertex="1" connectable="0">
          <mxGeometry x="0.1304" y="-1" relative="1" as="geometry">
            <mxPoint as="offset" />
          </mxGeometry>
        </mxCell>
        <mxCell id="SYf0jBdNwwrcCIj6PaXI-73" value="" style="edgeStyle=orthogonalEdgeStyle;rounded=0;orthogonalLoop=1;jettySize=auto;html=1;endArrow=none;shape=link;width=20;strokeColor=none;sketch=0;startArrow=none;" parent="1" source="SYf0jBdNwwrcCIj6PaXI-77" edge="1">
          <mxGeometry relative="1" as="geometry">
            <mxPoint x="-20" y="-1190" as="sourcePoint" />
            <mxPoint x="180.22628006671493" y="-1190" as="targetPoint" />
            <Array as="points">
              <mxPoint x="200" y="-1190" />
            </Array>
          </mxGeometry>
        </mxCell>
        <mxCell id="SYf0jBdNwwrcCIj6PaXI-80" style="edgeStyle=none;rounded=0;sketch=0;orthogonalLoop=1;jettySize=auto;html=1;dashed=1;" parent="1" source="SYf0jBdNwwrcCIj6PaXI-77" edge="1">
          <mxGeometry relative="1" as="geometry">
            <mxPoint x="208" y="-1270" as="targetPoint" />
          </mxGeometry>
        </mxCell>
        <mxCell id="SYf0jBdNwwrcCIj6PaXI-81" style="edgeStyle=none;rounded=0;sketch=0;orthogonalLoop=1;jettySize=auto;html=1;dashed=1;" parent="1" source="SYf0jBdNwwrcCIj6PaXI-77" edge="1">
          <mxGeometry relative="1" as="geometry">
            <mxPoint x="208" y="-1100" as="targetPoint" />
          </mxGeometry>
        </mxCell>
        <mxCell id="SYf0jBdNwwrcCIj6PaXI-77" value="&lt;font style=&quot;font-size: 8px&quot;&gt;Union&lt;/font&gt;" style="ellipse;whiteSpace=wrap;html=1;aspect=fixed;fillColor=#FFFFFF;" parent="1" vertex="1">
          <mxGeometry x="190" y="-1207" width="36" height="36" as="geometry" />
        </mxCell>
        <mxCell id="SYf0jBdNwwrcCIj6PaXI-82" value="" style="edgeStyle=orthogonalEdgeStyle;rounded=0;orthogonalLoop=1;jettySize=auto;html=1;endArrow=none;shape=link;width=20;strokeColor=none;sketch=0;" parent="1" source="SYf0jBdNwwrcCIj6PaXI-28" target="SYf0jBdNwwrcCIj6PaXI-77" edge="1">
          <mxGeometry relative="1" as="geometry">
            <mxPoint x="-20" y="-1190" as="sourcePoint" />
            <mxPoint x="180.22628006671493" y="-1190" as="targetPoint" />
            <Array as="points" />
          </mxGeometry>
        </mxCell>
        <mxCell id="SYf0jBdNwwrcCIj6PaXI-85" value="BroadCastBean&#xa;数据模型" style="shape=table;startSize=45;container=1;collapsible=0;childLayout=tableLayout;rounded=0;shadow=0;comic=0;sketch=0;labelBorderColor=none;" parent="1" vertex="1">
          <mxGeometry x="-380" y="-960" width="216" height="140" as="geometry" />
        </mxCell>
        <mxCell id="SYf0jBdNwwrcCIj6PaXI-86" value="" style="shape=tableRow;horizontal=0;startSize=0;swimlaneHead=0;swimlaneBody=0;top=0;left=0;bottom=0;right=0;collapsible=0;dropTarget=0;fillColor=none;points=[[0,0.5],[1,0.5]];portConstraint=eastwest;rounded=0;shadow=0;comic=0;sketch=0;" parent="SYf0jBdNwwrcCIj6PaXI-85" vertex="1">
          <mxGeometry y="45" width="216" height="47" as="geometry" />
        </mxCell>
        <mxCell id="SYf0jBdNwwrcCIj6PaXI-87" value="&lt;span&gt;Event&lt;/span&gt;" style="shape=partialRectangle;html=1;whiteSpace=wrap;connectable=0;overflow=hidden;fillColor=none;top=0;left=0;bottom=0;right=0;pointerEvents=1;rounded=0;shadow=0;comic=0;sketch=0;startSize=0;" parent="SYf0jBdNwwrcCIj6PaXI-86" vertex="1">
          <mxGeometry width="72" height="47" as="geometry">
            <mxRectangle width="72" height="47" as="alternateBounds" />
          </mxGeometry>
        </mxCell>
        <mxCell id="SYf0jBdNwwrcCIj6PaXI-88" value="&lt;span&gt;E&lt;/span&gt;" style="shape=partialRectangle;html=1;whiteSpace=wrap;connectable=0;overflow=hidden;fillColor=none;top=0;left=0;bottom=0;right=0;pointerEvents=1;rounded=0;shadow=0;comic=0;sketch=0;startSize=0;" parent="SYf0jBdNwwrcCIj6PaXI-86" vertex="1">
          <mxGeometry x="72" width="72" height="47" as="geometry">
            <mxRectangle width="72" height="47" as="alternateBounds" />
          </mxGeometry>
        </mxCell>
        <mxCell id="SYf0jBdNwwrcCIj6PaXI-89" value="&lt;span&gt;事件&lt;/span&gt;" style="shape=partialRectangle;html=1;whiteSpace=wrap;connectable=0;overflow=hidden;fillColor=none;top=0;left=0;bottom=0;right=0;pointerEvents=1;rounded=0;shadow=0;comic=0;sketch=0;startSize=0;" parent="SYf0jBdNwwrcCIj6PaXI-86" vertex="1">
          <mxGeometry x="144" width="72" height="47" as="geometry">
            <mxRectangle width="72" height="47" as="alternateBounds" />
          </mxGeometry>
        </mxCell>
        <mxCell id="SYf0jBdNwwrcCIj6PaXI-94" style="shape=tableRow;horizontal=0;startSize=0;swimlaneHead=0;swimlaneBody=0;top=0;left=0;bottom=0;right=0;collapsible=0;dropTarget=0;fillColor=none;points=[[0,0.5],[1,0.5]];portConstraint=eastwest;rounded=0;shadow=0;comic=0;sketch=0;" parent="SYf0jBdNwwrcCIj6PaXI-85" vertex="1">
          <mxGeometry y="92" width="216" height="48" as="geometry" />
        </mxCell>
        <mxCell id="SYf0jBdNwwrcCIj6PaXI-95" value="ruleModel" style="shape=partialRectangle;html=1;whiteSpace=wrap;connectable=0;overflow=hidden;fillColor=none;top=0;left=0;bottom=0;right=0;pointerEvents=1;rounded=0;shadow=0;comic=0;sketch=0;startSize=0;" parent="SYf0jBdNwwrcCIj6PaXI-94" vertex="1">
          <mxGeometry width="72" height="48" as="geometry">
            <mxRectangle width="72" height="48" as="alternateBounds" />
          </mxGeometry>
        </mxCell>
        <mxCell id="SYf0jBdNwwrcCIj6PaXI-96" value="&lt;span&gt;RuleModel&lt;/span&gt;" style="shape=partialRectangle;html=1;whiteSpace=wrap;connectable=0;overflow=hidden;fillColor=none;top=0;left=0;bottom=0;right=0;pointerEvents=1;rounded=0;shadow=0;comic=0;sketch=0;startSize=0;" parent="SYf0jBdNwwrcCIj6PaXI-94" vertex="1">
          <mxGeometry x="72" width="72" height="48" as="geometry">
            <mxRectangle width="72" height="48" as="alternateBounds" />
          </mxGeometry>
        </mxCell>
        <mxCell id="SYf0jBdNwwrcCIj6PaXI-97" value="标识是序列型还是统计型" style="shape=partialRectangle;html=1;whiteSpace=wrap;connectable=0;overflow=hidden;fillColor=none;top=0;left=0;bottom=0;right=0;pointerEvents=1;rounded=0;shadow=0;comic=0;sketch=0;startSize=0;" parent="SYf0jBdNwwrcCIj6PaXI-94" vertex="1">
          <mxGeometry x="144" width="72" height="48" as="geometry">
            <mxRectangle width="72" height="48" as="alternateBounds" />
          </mxGeometry>
        </mxCell>
        <mxCell id="SYf0jBdNwwrcCIj6PaXI-99" value="" style="curved=1;endArrow=classic;html=1;rounded=0;dashed=1;sketch=0;fontSize=8;entryX=0.5;entryY=0;entryDx=0;entryDy=0;" parent="1" target="SYf0jBdNwwrcCIj6PaXI-85" edge="1">
          <mxGeometry width="50" height="50" relative="1" as="geometry">
            <mxPoint x="10" y="-1320" as="sourcePoint" />
            <mxPoint x="-390" y="-1190" as="targetPoint" />
            <Array as="points">
              <mxPoint x="-60" y="-1270" />
            </Array>
          </mxGeometry>
        </mxCell>
        <mxCell id="SYf0jBdNwwrcCIj6PaXI-100" value="" style="curved=1;endArrow=classic;html=1;rounded=0;dashed=1;sketch=0;fontSize=8;entryX=0.5;entryY=0;entryDx=0;entryDy=0;" parent="1" target="SYf0jBdNwwrcCIj6PaXI-85" edge="1">
          <mxGeometry width="50" height="50" relative="1" as="geometry">
            <mxPoint x="190" y="-1380" as="sourcePoint" />
            <mxPoint x="-260" y="-1140" as="targetPoint" />
            <Array as="points">
              <mxPoint x="50" y="-1330" />
              <mxPoint x="-60" y="-1260" />
              <mxPoint x="-180" y="-1090" />
            </Array>
          </mxGeometry>
        </mxCell>
        <mxCell id="ZLNcmGzdZcA3_jxbhbgN-1" value="&lt;h1&gt;跳过策略理解&lt;/h1&gt;通过例子说明&lt;span&gt;CEP的跳过策略&lt;/span&gt;" style="text;html=1;strokeColor=none;fillColor=none;spacing=5;spacingTop=-20;whiteSpace=wrap;overflow=hidden;rounded=0;" vertex="1" parent="1">
          <mxGeometry y="-80" width="190" height="80" as="geometry" />
        </mxCell>
        <mxCell id="ZLNcmGzdZcA3_jxbhbgN-36" value="输入的事件序列" style="shape=table;startSize=30;container=1;collapsible=0;childLayout=tableLayout;fontStyle=1;align=center;" vertex="1" parent="1">
          <mxGeometry x="199" y="-40" width="171" height="80" as="geometry" />
        </mxCell>
        <mxCell id="ZLNcmGzdZcA3_jxbhbgN-37" value="" style="shape=tableRow;horizontal=0;startSize=0;swimlaneHead=0;swimlaneBody=0;top=0;left=0;bottom=0;right=0;collapsible=0;dropTarget=0;fillColor=none;points=[[0,0.5],[1,0.5]];portConstraint=eastwest;" vertex="1" parent="ZLNcmGzdZcA3_jxbhbgN-36">
          <mxGeometry y="30" width="171" height="25" as="geometry" />
        </mxCell>
        <mxCell id="ZLNcmGzdZcA3_jxbhbgN-38" value="a" style="shape=partialRectangle;html=1;whiteSpace=wrap;connectable=0;fillColor=none;top=0;left=0;bottom=0;right=0;overflow=hidden;" vertex="1" parent="ZLNcmGzdZcA3_jxbhbgN-37">
          <mxGeometry width="42" height="25" as="geometry">
            <mxRectangle width="42" height="25" as="alternateBounds" />
          </mxGeometry>
        </mxCell>
        <mxCell id="ZLNcmGzdZcA3_jxbhbgN-39" value="a" style="shape=partialRectangle;html=1;whiteSpace=wrap;connectable=0;fillColor=none;top=0;left=0;bottom=0;right=0;overflow=hidden;" vertex="1" parent="ZLNcmGzdZcA3_jxbhbgN-37">
          <mxGeometry x="42" width="44" height="25" as="geometry">
            <mxRectangle width="44" height="25" as="alternateBounds" />
          </mxGeometry>
        </mxCell>
        <mxCell id="ZLNcmGzdZcA3_jxbhbgN-40" value="a" style="shape=partialRectangle;html=1;whiteSpace=wrap;connectable=0;fillColor=none;top=0;left=0;bottom=0;right=0;overflow=hidden;" vertex="1" parent="ZLNcmGzdZcA3_jxbhbgN-37">
          <mxGeometry x="86" width="43" height="25" as="geometry">
            <mxRectangle width="43" height="25" as="alternateBounds" />
          </mxGeometry>
        </mxCell>
        <mxCell id="ZLNcmGzdZcA3_jxbhbgN-49" value="b" style="shape=partialRectangle;html=1;whiteSpace=wrap;connectable=0;fillColor=none;top=0;left=0;bottom=0;right=0;overflow=hidden;" vertex="1" parent="ZLNcmGzdZcA3_jxbhbgN-37">
          <mxGeometry x="129" width="42" height="25" as="geometry">
            <mxRectangle width="42" height="25" as="alternateBounds" />
          </mxGeometry>
        </mxCell>
        <mxCell id="ZLNcmGzdZcA3_jxbhbgN-41" value="" style="shape=tableRow;horizontal=0;startSize=0;swimlaneHead=0;swimlaneBody=0;top=0;left=0;bottom=0;right=0;collapsible=0;dropTarget=0;fillColor=none;points=[[0,0.5],[1,0.5]];portConstraint=eastwest;" vertex="1" parent="ZLNcmGzdZcA3_jxbhbgN-36">
          <mxGeometry y="55" width="171" height="25" as="geometry" />
        </mxCell>
        <mxCell id="ZLNcmGzdZcA3_jxbhbgN-42" value="a1" style="shape=partialRectangle;html=1;whiteSpace=wrap;connectable=0;fillColor=none;top=0;left=0;bottom=0;right=0;overflow=hidden;" vertex="1" parent="ZLNcmGzdZcA3_jxbhbgN-41">
          <mxGeometry width="42" height="25" as="geometry">
            <mxRectangle width="42" height="25" as="alternateBounds" />
          </mxGeometry>
        </mxCell>
        <mxCell id="ZLNcmGzdZcA3_jxbhbgN-43" value="a2" style="shape=partialRectangle;html=1;whiteSpace=wrap;connectable=0;fillColor=none;top=0;left=0;bottom=0;right=0;overflow=hidden;" vertex="1" parent="ZLNcmGzdZcA3_jxbhbgN-41">
          <mxGeometry x="42" width="44" height="25" as="geometry">
            <mxRectangle width="44" height="25" as="alternateBounds" />
          </mxGeometry>
        </mxCell>
        <mxCell id="ZLNcmGzdZcA3_jxbhbgN-44" value="a3" style="shape=partialRectangle;html=1;whiteSpace=wrap;connectable=0;fillColor=none;top=0;left=0;bottom=0;right=0;overflow=hidden;" vertex="1" parent="ZLNcmGzdZcA3_jxbhbgN-41">
          <mxGeometry x="86" width="43" height="25" as="geometry">
            <mxRectangle width="43" height="25" as="alternateBounds" />
          </mxGeometry>
        </mxCell>
        <mxCell id="ZLNcmGzdZcA3_jxbhbgN-50" value="b" style="shape=partialRectangle;html=1;whiteSpace=wrap;connectable=0;fillColor=none;top=0;left=0;bottom=0;right=0;overflow=hidden;" vertex="1" parent="ZLNcmGzdZcA3_jxbhbgN-41">
          <mxGeometry x="129" width="42" height="25" as="geometry">
            <mxRectangle width="42" height="25" as="alternateBounds" />
          </mxGeometry>
        </mxCell>
        <mxCell id="ZLNcmGzdZcA3_jxbhbgN-54" value="" style="curved=1;endArrow=classic;html=1;rounded=0;exitX=1;exitY=0.5;exitDx=0;exitDy=0;entryX=1;entryY=0.5;entryDx=0;entryDy=0;" edge="1" parent="ZLNcmGzdZcA3_jxbhbgN-36" source="ZLNcmGzdZcA3_jxbhbgN-37" target="ZLNcmGzdZcA3_jxbhbgN-41">
          <mxGeometry width="50" height="50" relative="1" as="geometry">
            <mxPoint x="271" y="100" as="sourcePoint" />
            <mxPoint x="321" y="50" as="targetPoint" />
            <Array as="points">
              <mxPoint x="201" y="30" />
              <mxPoint x="201" y="80" />
            </Array>
          </mxGeometry>
        </mxCell>
        <mxCell id="ZLNcmGzdZcA3_jxbhbgN-55" value="为了方便标识不同的a,加了下标数字" style="text;html=1;strokeColor=none;fillColor=none;align=center;verticalAlign=middle;whiteSpace=wrap;rounded=0;" vertex="1" parent="1">
          <mxGeometry x="400" width="200" height="30" as="geometry" />
        </mxCell>
        <mxCell id="ZLNcmGzdZcA3_jxbhbgN-56" value="" style="endArrow=none;dashed=1;html=1;rounded=0;" edge="1" parent="1">
          <mxGeometry width="50" height="50" relative="1" as="geometry">
            <mxPoint x="330" y="-480" as="sourcePoint" />
            <mxPoint x="380" y="-530" as="targetPoint" />
          </mxGeometry>
        </mxCell>
        <mxCell id="ZLNcmGzdZcA3_jxbhbgN-57" value="" style="endArrow=none;dashed=1;html=1;rounded=0;" edge="1" parent="1">
          <mxGeometry width="50" height="50" relative="1" as="geometry">
            <mxPoint y="-640" as="sourcePoint" />
            <mxPoint x="720" y="-640" as="targetPoint" />
          </mxGeometry>
        </mxCell>
        <mxCell id="ZLNcmGzdZcA3_jxbhbgN-58" value="" style="endArrow=none;dashed=1;html=1;rounded=0;" edge="1" parent="1">
          <mxGeometry width="50" height="50" relative="1" as="geometry">
            <mxPoint y="-360" as="sourcePoint" />
            <mxPoint x="720" y="-360" as="targetPoint" />
          </mxGeometry>
        </mxCell>
        <mxCell id="ZLNcmGzdZcA3_jxbhbgN-59" value="" style="endArrow=none;dashed=1;html=1;rounded=0;" edge="1" parent="1">
          <mxGeometry width="50" height="50" relative="1" as="geometry">
            <mxPoint y="-120" as="sourcePoint" />
            <mxPoint x="720" y="-120" as="targetPoint" />
          </mxGeometry>
        </mxCell>
        <mxCell id="ZLNcmGzdZcA3_jxbhbgN-60" value="&lt;b&gt;Pattern&lt;/b&gt;：a.oneOrMore().followedBy(b)" style="text;html=1;strokeColor=none;fillColor=none;align=center;verticalAlign=middle;whiteSpace=wrap;rounded=0;" vertex="1" parent="1">
          <mxGeometry x="199" y="-80" width="211" height="30" as="geometry" />
        </mxCell>
        <mxCell id="ZLNcmGzdZcA3_jxbhbgN-61" value="【默认：NoSkip】" style="shape=table;startSize=30;container=1;collapsible=0;childLayout=tableLayout;fontStyle=1;align=center;" vertex="1" parent="1">
          <mxGeometry x="199" y="80" width="331" height="200" as="geometry" />
        </mxCell>
        <mxCell id="ZLNcmGzdZcA3_jxbhbgN-87" style="shape=tableRow;horizontal=0;startSize=0;swimlaneHead=0;swimlaneBody=0;top=0;left=0;bottom=0;right=0;collapsible=0;dropTarget=0;fillColor=none;points=[[0,0.5],[1,0.5]];portConstraint=eastwest;" vertex="1" parent="ZLNcmGzdZcA3_jxbhbgN-61">
          <mxGeometry y="30" width="331" height="27" as="geometry" />
        </mxCell>
        <mxCell id="ZLNcmGzdZcA3_jxbhbgN-88" value="a1" style="shape=partialRectangle;html=1;whiteSpace=wrap;connectable=0;fillColor=none;top=0;left=0;bottom=0;right=0;overflow=hidden;" vertex="1" parent="ZLNcmGzdZcA3_jxbhbgN-87">
          <mxGeometry width="83" height="27" as="geometry">
            <mxRectangle width="83" height="27" as="alternateBounds" />
          </mxGeometry>
        </mxCell>
        <mxCell id="ZLNcmGzdZcA3_jxbhbgN-89" value="a2" style="shape=partialRectangle;html=1;whiteSpace=wrap;connectable=0;fillColor=none;top=0;left=0;bottom=0;right=0;overflow=hidden;" vertex="1" parent="ZLNcmGzdZcA3_jxbhbgN-87">
          <mxGeometry x="83" width="82" height="27" as="geometry">
            <mxRectangle width="82" height="27" as="alternateBounds" />
          </mxGeometry>
        </mxCell>
        <mxCell id="ZLNcmGzdZcA3_jxbhbgN-90" value="a3" style="shape=partialRectangle;html=1;whiteSpace=wrap;connectable=0;fillColor=none;top=0;left=0;bottom=0;right=0;overflow=hidden;" vertex="1" parent="ZLNcmGzdZcA3_jxbhbgN-87">
          <mxGeometry x="165" width="83" height="27" as="geometry">
            <mxRectangle width="83" height="27" as="alternateBounds" />
          </mxGeometry>
        </mxCell>
        <mxCell id="ZLNcmGzdZcA3_jxbhbgN-91" value="b" style="shape=partialRectangle;html=1;whiteSpace=wrap;connectable=0;fillColor=none;top=0;left=0;bottom=0;right=0;overflow=hidden;" vertex="1" parent="ZLNcmGzdZcA3_jxbhbgN-87">
          <mxGeometry x="248" width="83" height="27" as="geometry">
            <mxRectangle width="83" height="27" as="alternateBounds" />
          </mxGeometry>
        </mxCell>
        <mxCell id="ZLNcmGzdZcA3_jxbhbgN-82" style="shape=tableRow;horizontal=0;startSize=0;swimlaneHead=0;swimlaneBody=0;top=0;left=0;bottom=0;right=0;collapsible=0;dropTarget=0;fillColor=none;points=[[0,0.5],[1,0.5]];portConstraint=eastwest;" vertex="1" parent="ZLNcmGzdZcA3_jxbhbgN-61">
          <mxGeometry y="57" width="331" height="31" as="geometry" />
        </mxCell>
        <mxCell id="ZLNcmGzdZcA3_jxbhbgN-83" value="a1" style="shape=partialRectangle;html=1;whiteSpace=wrap;connectable=0;fillColor=none;top=0;left=0;bottom=0;right=0;overflow=hidden;" vertex="1" parent="ZLNcmGzdZcA3_jxbhbgN-82">
          <mxGeometry width="83" height="31" as="geometry">
            <mxRectangle width="83" height="31" as="alternateBounds" />
          </mxGeometry>
        </mxCell>
        <mxCell id="ZLNcmGzdZcA3_jxbhbgN-84" value="a2" style="shape=partialRectangle;html=1;whiteSpace=wrap;connectable=0;fillColor=none;top=0;left=0;bottom=0;right=0;overflow=hidden;" vertex="1" parent="ZLNcmGzdZcA3_jxbhbgN-82">
          <mxGeometry x="83" width="82" height="31" as="geometry">
            <mxRectangle width="82" height="31" as="alternateBounds" />
          </mxGeometry>
        </mxCell>
        <mxCell id="ZLNcmGzdZcA3_jxbhbgN-85" value="b" style="shape=partialRectangle;html=1;whiteSpace=wrap;connectable=0;fillColor=none;top=0;left=0;bottom=0;right=0;overflow=hidden;" vertex="1" parent="ZLNcmGzdZcA3_jxbhbgN-82">
          <mxGeometry x="165" width="83" height="31" as="geometry">
            <mxRectangle width="83" height="31" as="alternateBounds" />
          </mxGeometry>
        </mxCell>
        <mxCell id="ZLNcmGzdZcA3_jxbhbgN-86" style="shape=partialRectangle;html=1;whiteSpace=wrap;connectable=0;fillColor=none;top=0;left=0;bottom=0;right=0;overflow=hidden;" vertex="1" parent="ZLNcmGzdZcA3_jxbhbgN-82">
          <mxGeometry x="248" width="83" height="31" as="geometry">
            <mxRectangle width="83" height="31" as="alternateBounds" />
          </mxGeometry>
        </mxCell>
        <mxCell id="ZLNcmGzdZcA3_jxbhbgN-77" style="shape=tableRow;horizontal=0;startSize=0;swimlaneHead=0;swimlaneBody=0;top=0;left=0;bottom=0;right=0;collapsible=0;dropTarget=0;fillColor=none;points=[[0,0.5],[1,0.5]];portConstraint=eastwest;" vertex="1" parent="ZLNcmGzdZcA3_jxbhbgN-61">
          <mxGeometry y="88" width="331" height="27" as="geometry" />
        </mxCell>
        <mxCell id="ZLNcmGzdZcA3_jxbhbgN-78" value="a1" style="shape=partialRectangle;html=1;whiteSpace=wrap;connectable=0;fillColor=none;top=0;left=0;bottom=0;right=0;overflow=hidden;" vertex="1" parent="ZLNcmGzdZcA3_jxbhbgN-77">
          <mxGeometry width="83" height="27" as="geometry">
            <mxRectangle width="83" height="27" as="alternateBounds" />
          </mxGeometry>
        </mxCell>
        <mxCell id="ZLNcmGzdZcA3_jxbhbgN-79" value="b" style="shape=partialRectangle;html=1;whiteSpace=wrap;connectable=0;fillColor=none;top=0;left=0;bottom=0;right=0;overflow=hidden;" vertex="1" parent="ZLNcmGzdZcA3_jxbhbgN-77">
          <mxGeometry x="83" width="82" height="27" as="geometry">
            <mxRectangle width="82" height="27" as="alternateBounds" />
          </mxGeometry>
        </mxCell>
        <mxCell id="ZLNcmGzdZcA3_jxbhbgN-80" style="shape=partialRectangle;html=1;whiteSpace=wrap;connectable=0;fillColor=none;top=0;left=0;bottom=0;right=0;overflow=hidden;" vertex="1" parent="ZLNcmGzdZcA3_jxbhbgN-77">
          <mxGeometry x="165" width="83" height="27" as="geometry">
            <mxRectangle width="83" height="27" as="alternateBounds" />
          </mxGeometry>
        </mxCell>
        <mxCell id="ZLNcmGzdZcA3_jxbhbgN-81" style="shape=partialRectangle;html=1;whiteSpace=wrap;connectable=0;fillColor=none;top=0;left=0;bottom=0;right=0;overflow=hidden;" vertex="1" parent="ZLNcmGzdZcA3_jxbhbgN-77">
          <mxGeometry x="248" width="83" height="27" as="geometry">
            <mxRectangle width="83" height="27" as="alternateBounds" />
          </mxGeometry>
        </mxCell>
        <mxCell id="ZLNcmGzdZcA3_jxbhbgN-62" value="" style="shape=tableRow;horizontal=0;startSize=0;swimlaneHead=0;swimlaneBody=0;top=0;left=0;bottom=0;right=0;collapsible=0;dropTarget=0;fillColor=none;points=[[0,0.5],[1,0.5]];portConstraint=eastwest;" vertex="1" parent="ZLNcmGzdZcA3_jxbhbgN-61">
          <mxGeometry y="115" width="331" height="27" as="geometry" />
        </mxCell>
        <mxCell id="ZLNcmGzdZcA3_jxbhbgN-63" value="a2" style="shape=partialRectangle;html=1;whiteSpace=wrap;connectable=0;fillColor=none;top=0;left=0;bottom=0;right=0;overflow=hidden;" vertex="1" parent="ZLNcmGzdZcA3_jxbhbgN-62">
          <mxGeometry width="83" height="27" as="geometry">
            <mxRectangle width="83" height="27" as="alternateBounds" />
          </mxGeometry>
        </mxCell>
        <mxCell id="ZLNcmGzdZcA3_jxbhbgN-64" value="a3" style="shape=partialRectangle;html=1;whiteSpace=wrap;connectable=0;fillColor=none;top=0;left=0;bottom=0;right=0;overflow=hidden;" vertex="1" parent="ZLNcmGzdZcA3_jxbhbgN-62">
          <mxGeometry x="83" width="82" height="27" as="geometry">
            <mxRectangle width="82" height="27" as="alternateBounds" />
          </mxGeometry>
        </mxCell>
        <mxCell id="ZLNcmGzdZcA3_jxbhbgN-65" value="b" style="shape=partialRectangle;html=1;whiteSpace=wrap;connectable=0;fillColor=none;top=0;left=0;bottom=0;right=0;overflow=hidden;" vertex="1" parent="ZLNcmGzdZcA3_jxbhbgN-62">
          <mxGeometry x="165" width="83" height="27" as="geometry">
            <mxRectangle width="83" height="27" as="alternateBounds" />
          </mxGeometry>
        </mxCell>
        <mxCell id="ZLNcmGzdZcA3_jxbhbgN-74" style="shape=partialRectangle;html=1;whiteSpace=wrap;connectable=0;fillColor=none;top=0;left=0;bottom=0;right=0;overflow=hidden;" vertex="1" parent="ZLNcmGzdZcA3_jxbhbgN-62">
          <mxGeometry x="248" width="83" height="27" as="geometry">
            <mxRectangle width="83" height="27" as="alternateBounds" />
          </mxGeometry>
        </mxCell>
        <mxCell id="ZLNcmGzdZcA3_jxbhbgN-66" value="" style="shape=tableRow;horizontal=0;startSize=0;swimlaneHead=0;swimlaneBody=0;top=0;left=0;bottom=0;right=0;collapsible=0;dropTarget=0;fillColor=none;points=[[0,0.5],[1,0.5]];portConstraint=eastwest;" vertex="1" parent="ZLNcmGzdZcA3_jxbhbgN-61">
          <mxGeometry y="142" width="331" height="31" as="geometry" />
        </mxCell>
        <mxCell id="ZLNcmGzdZcA3_jxbhbgN-67" value="a2" style="shape=partialRectangle;html=1;whiteSpace=wrap;connectable=0;fillColor=none;top=0;left=0;bottom=0;right=0;overflow=hidden;" vertex="1" parent="ZLNcmGzdZcA3_jxbhbgN-66">
          <mxGeometry width="83" height="31" as="geometry">
            <mxRectangle width="83" height="31" as="alternateBounds" />
          </mxGeometry>
        </mxCell>
        <mxCell id="ZLNcmGzdZcA3_jxbhbgN-68" value="b" style="shape=partialRectangle;html=1;whiteSpace=wrap;connectable=0;fillColor=none;top=0;left=0;bottom=0;right=0;overflow=hidden;" vertex="1" parent="ZLNcmGzdZcA3_jxbhbgN-66">
          <mxGeometry x="83" width="82" height="31" as="geometry">
            <mxRectangle width="82" height="31" as="alternateBounds" />
          </mxGeometry>
        </mxCell>
        <mxCell id="ZLNcmGzdZcA3_jxbhbgN-69" value="" style="shape=partialRectangle;html=1;whiteSpace=wrap;connectable=0;fillColor=none;top=0;left=0;bottom=0;right=0;overflow=hidden;" vertex="1" parent="ZLNcmGzdZcA3_jxbhbgN-66">
          <mxGeometry x="165" width="83" height="31" as="geometry">
            <mxRectangle width="83" height="31" as="alternateBounds" />
          </mxGeometry>
        </mxCell>
        <mxCell id="ZLNcmGzdZcA3_jxbhbgN-75" style="shape=partialRectangle;html=1;whiteSpace=wrap;connectable=0;fillColor=none;top=0;left=0;bottom=0;right=0;overflow=hidden;" vertex="1" parent="ZLNcmGzdZcA3_jxbhbgN-66">
          <mxGeometry x="248" width="83" height="31" as="geometry">
            <mxRectangle width="83" height="31" as="alternateBounds" />
          </mxGeometry>
        </mxCell>
        <mxCell id="ZLNcmGzdZcA3_jxbhbgN-70" value="" style="shape=tableRow;horizontal=0;startSize=0;swimlaneHead=0;swimlaneBody=0;top=0;left=0;bottom=0;right=0;collapsible=0;dropTarget=0;fillColor=none;points=[[0,0.5],[1,0.5]];portConstraint=eastwest;" vertex="1" parent="ZLNcmGzdZcA3_jxbhbgN-61">
          <mxGeometry y="173" width="331" height="27" as="geometry" />
        </mxCell>
        <mxCell id="ZLNcmGzdZcA3_jxbhbgN-71" value="a3" style="shape=partialRectangle;html=1;whiteSpace=wrap;connectable=0;fillColor=none;top=0;left=0;bottom=0;right=0;overflow=hidden;" vertex="1" parent="ZLNcmGzdZcA3_jxbhbgN-70">
          <mxGeometry width="83" height="27" as="geometry">
            <mxRectangle width="83" height="27" as="alternateBounds" />
          </mxGeometry>
        </mxCell>
        <mxCell id="ZLNcmGzdZcA3_jxbhbgN-72" value="b" style="shape=partialRectangle;html=1;whiteSpace=wrap;connectable=0;fillColor=none;top=0;left=0;bottom=0;right=0;overflow=hidden;" vertex="1" parent="ZLNcmGzdZcA3_jxbhbgN-70">
          <mxGeometry x="83" width="82" height="27" as="geometry">
            <mxRectangle width="82" height="27" as="alternateBounds" />
          </mxGeometry>
        </mxCell>
        <mxCell id="ZLNcmGzdZcA3_jxbhbgN-73" value="" style="shape=partialRectangle;html=1;whiteSpace=wrap;connectable=0;fillColor=none;top=0;left=0;bottom=0;right=0;overflow=hidden;" vertex="1" parent="ZLNcmGzdZcA3_jxbhbgN-70">
          <mxGeometry x="165" width="83" height="27" as="geometry">
            <mxRectangle width="83" height="27" as="alternateBounds" />
          </mxGeometry>
        </mxCell>
        <mxCell id="ZLNcmGzdZcA3_jxbhbgN-76" style="shape=partialRectangle;html=1;whiteSpace=wrap;connectable=0;fillColor=none;top=0;left=0;bottom=0;right=0;overflow=hidden;" vertex="1" parent="ZLNcmGzdZcA3_jxbhbgN-70">
          <mxGeometry x="248" width="83" height="27" as="geometry">
            <mxRectangle width="83" height="27" as="alternateBounds" />
          </mxGeometry>
        </mxCell>
        <mxCell id="ZLNcmGzdZcA3_jxbhbgN-92" value="【SkipToNext】" style="shape=table;startSize=30;container=1;collapsible=0;childLayout=tableLayout;fontStyle=1;align=center;" vertex="1" parent="1">
          <mxGeometry x="199" y="320" width="331" height="200" as="geometry" />
        </mxCell>
        <mxCell id="ZLNcmGzdZcA3_jxbhbgN-93" style="shape=tableRow;horizontal=0;startSize=0;swimlaneHead=0;swimlaneBody=0;top=0;left=0;bottom=0;right=0;collapsible=0;dropTarget=0;fillColor=none;points=[[0,0.5],[1,0.5]];portConstraint=eastwest;" vertex="1" parent="ZLNcmGzdZcA3_jxbhbgN-92">
          <mxGeometry y="30" width="331" height="27" as="geometry" />
        </mxCell>
        <mxCell id="ZLNcmGzdZcA3_jxbhbgN-94" value="a1" style="shape=partialRectangle;html=1;whiteSpace=wrap;connectable=0;fillColor=#f8cecc;top=0;left=0;bottom=0;right=0;overflow=hidden;labelBorderColor=none;strokeColor=#b85450;" vertex="1" parent="ZLNcmGzdZcA3_jxbhbgN-93">
          <mxGeometry width="83" height="27" as="geometry">
            <mxRectangle width="83" height="27" as="alternateBounds" />
          </mxGeometry>
        </mxCell>
        <mxCell id="ZLNcmGzdZcA3_jxbhbgN-95" value="a2" style="shape=partialRectangle;html=1;whiteSpace=wrap;connectable=0;fillColor=#f8cecc;top=0;left=0;bottom=0;right=0;overflow=hidden;labelBorderColor=none;strokeColor=#b85450;" vertex="1" parent="ZLNcmGzdZcA3_jxbhbgN-93">
          <mxGeometry x="83" width="82" height="27" as="geometry">
            <mxRectangle width="82" height="27" as="alternateBounds" />
          </mxGeometry>
        </mxCell>
        <mxCell id="ZLNcmGzdZcA3_jxbhbgN-96" value="a3" style="shape=partialRectangle;html=1;whiteSpace=wrap;connectable=0;fillColor=#f8cecc;top=0;left=0;bottom=0;right=0;overflow=hidden;labelBorderColor=none;strokeColor=#b85450;" vertex="1" parent="ZLNcmGzdZcA3_jxbhbgN-93">
          <mxGeometry x="165" width="83" height="27" as="geometry">
            <mxRectangle width="83" height="27" as="alternateBounds" />
          </mxGeometry>
        </mxCell>
        <mxCell id="ZLNcmGzdZcA3_jxbhbgN-97" value="b" style="shape=partialRectangle;html=1;whiteSpace=wrap;connectable=0;fillColor=#f8cecc;top=0;left=0;bottom=0;right=0;overflow=hidden;labelBorderColor=none;strokeColor=#b85450;" vertex="1" parent="ZLNcmGzdZcA3_jxbhbgN-93">
          <mxGeometry x="248" width="83" height="27" as="geometry">
            <mxRectangle width="83" height="27" as="alternateBounds" />
          </mxGeometry>
        </mxCell>
        <mxCell id="ZLNcmGzdZcA3_jxbhbgN-98" style="shape=tableRow;horizontal=0;startSize=0;swimlaneHead=0;swimlaneBody=0;top=0;left=0;bottom=0;right=0;collapsible=0;dropTarget=0;fillColor=none;points=[[0,0.5],[1,0.5]];portConstraint=eastwest;" vertex="1" parent="ZLNcmGzdZcA3_jxbhbgN-92">
          <mxGeometry y="57" width="331" height="31" as="geometry" />
        </mxCell>
        <mxCell id="ZLNcmGzdZcA3_jxbhbgN-99" value="a1" style="shape=partialRectangle;html=1;whiteSpace=wrap;connectable=0;fillColor=none;top=0;left=0;bottom=0;right=0;overflow=hidden;" vertex="1" parent="ZLNcmGzdZcA3_jxbhbgN-98">
          <mxGeometry width="83" height="31" as="geometry">
            <mxRectangle width="83" height="31" as="alternateBounds" />
          </mxGeometry>
        </mxCell>
        <mxCell id="ZLNcmGzdZcA3_jxbhbgN-100" value="a2" style="shape=partialRectangle;html=1;whiteSpace=wrap;connectable=0;fillColor=none;top=0;left=0;bottom=0;right=0;overflow=hidden;" vertex="1" parent="ZLNcmGzdZcA3_jxbhbgN-98">
          <mxGeometry x="83" width="82" height="31" as="geometry">
            <mxRectangle width="82" height="31" as="alternateBounds" />
          </mxGeometry>
        </mxCell>
        <mxCell id="ZLNcmGzdZcA3_jxbhbgN-101" value="b" style="shape=partialRectangle;html=1;whiteSpace=wrap;connectable=0;fillColor=none;top=0;left=0;bottom=0;right=0;overflow=hidden;" vertex="1" parent="ZLNcmGzdZcA3_jxbhbgN-98">
          <mxGeometry x="165" width="83" height="31" as="geometry">
            <mxRectangle width="83" height="31" as="alternateBounds" />
          </mxGeometry>
        </mxCell>
        <mxCell id="ZLNcmGzdZcA3_jxbhbgN-102" style="shape=partialRectangle;html=1;whiteSpace=wrap;connectable=0;fillColor=none;top=0;left=0;bottom=0;right=0;overflow=hidden;" vertex="1" parent="ZLNcmGzdZcA3_jxbhbgN-98">
          <mxGeometry x="248" width="83" height="31" as="geometry">
            <mxRectangle width="83" height="31" as="alternateBounds" />
          </mxGeometry>
        </mxCell>
        <mxCell id="ZLNcmGzdZcA3_jxbhbgN-103" style="shape=tableRow;horizontal=0;startSize=0;swimlaneHead=0;swimlaneBody=0;top=0;left=0;bottom=0;right=0;collapsible=0;dropTarget=0;fillColor=none;points=[[0,0.5],[1,0.5]];portConstraint=eastwest;" vertex="1" parent="ZLNcmGzdZcA3_jxbhbgN-92">
          <mxGeometry y="88" width="331" height="27" as="geometry" />
        </mxCell>
        <mxCell id="ZLNcmGzdZcA3_jxbhbgN-104" value="a1" style="shape=partialRectangle;html=1;whiteSpace=wrap;connectable=0;fillColor=none;top=0;left=0;bottom=0;right=0;overflow=hidden;" vertex="1" parent="ZLNcmGzdZcA3_jxbhbgN-103">
          <mxGeometry width="83" height="27" as="geometry">
            <mxRectangle width="83" height="27" as="alternateBounds" />
          </mxGeometry>
        </mxCell>
        <mxCell id="ZLNcmGzdZcA3_jxbhbgN-105" value="b" style="shape=partialRectangle;html=1;whiteSpace=wrap;connectable=0;fillColor=none;top=0;left=0;bottom=0;right=0;overflow=hidden;" vertex="1" parent="ZLNcmGzdZcA3_jxbhbgN-103">
          <mxGeometry x="83" width="82" height="27" as="geometry">
            <mxRectangle width="82" height="27" as="alternateBounds" />
          </mxGeometry>
        </mxCell>
        <mxCell id="ZLNcmGzdZcA3_jxbhbgN-106" style="shape=partialRectangle;html=1;whiteSpace=wrap;connectable=0;fillColor=none;top=0;left=0;bottom=0;right=0;overflow=hidden;" vertex="1" parent="ZLNcmGzdZcA3_jxbhbgN-103">
          <mxGeometry x="165" width="83" height="27" as="geometry">
            <mxRectangle width="83" height="27" as="alternateBounds" />
          </mxGeometry>
        </mxCell>
        <mxCell id="ZLNcmGzdZcA3_jxbhbgN-107" style="shape=partialRectangle;html=1;whiteSpace=wrap;connectable=0;fillColor=none;top=0;left=0;bottom=0;right=0;overflow=hidden;" vertex="1" parent="ZLNcmGzdZcA3_jxbhbgN-103">
          <mxGeometry x="248" width="83" height="27" as="geometry">
            <mxRectangle width="83" height="27" as="alternateBounds" />
          </mxGeometry>
        </mxCell>
        <mxCell id="ZLNcmGzdZcA3_jxbhbgN-108" value="" style="shape=tableRow;horizontal=0;startSize=0;swimlaneHead=0;swimlaneBody=0;top=0;left=0;bottom=0;right=0;collapsible=0;dropTarget=0;fillColor=none;points=[[0,0.5],[1,0.5]];portConstraint=eastwest;" vertex="1" parent="ZLNcmGzdZcA3_jxbhbgN-92">
          <mxGeometry y="115" width="331" height="27" as="geometry" />
        </mxCell>
        <mxCell id="ZLNcmGzdZcA3_jxbhbgN-109" value="a2" style="shape=partialRectangle;html=1;whiteSpace=wrap;connectable=0;fillColor=#f8cecc;top=0;left=0;bottom=0;right=0;overflow=hidden;strokeColor=#b85450;" vertex="1" parent="ZLNcmGzdZcA3_jxbhbgN-108">
          <mxGeometry width="83" height="27" as="geometry">
            <mxRectangle width="83" height="27" as="alternateBounds" />
          </mxGeometry>
        </mxCell>
        <mxCell id="ZLNcmGzdZcA3_jxbhbgN-110" value="a3" style="shape=partialRectangle;html=1;whiteSpace=wrap;connectable=0;fillColor=#f8cecc;top=0;left=0;bottom=0;right=0;overflow=hidden;strokeColor=#b85450;" vertex="1" parent="ZLNcmGzdZcA3_jxbhbgN-108">
          <mxGeometry x="83" width="82" height="27" as="geometry">
            <mxRectangle width="82" height="27" as="alternateBounds" />
          </mxGeometry>
        </mxCell>
        <mxCell id="ZLNcmGzdZcA3_jxbhbgN-111" value="b" style="shape=partialRectangle;html=1;whiteSpace=wrap;connectable=0;fillColor=#f8cecc;top=0;left=0;bottom=0;right=0;overflow=hidden;strokeColor=#b85450;" vertex="1" parent="ZLNcmGzdZcA3_jxbhbgN-108">
          <mxGeometry x="165" width="83" height="27" as="geometry">
            <mxRectangle width="83" height="27" as="alternateBounds" />
          </mxGeometry>
        </mxCell>
        <mxCell id="ZLNcmGzdZcA3_jxbhbgN-112" style="shape=partialRectangle;html=1;whiteSpace=wrap;connectable=0;fillColor=#f8cecc;top=0;left=0;bottom=0;right=0;overflow=hidden;strokeColor=#b85450;" vertex="1" parent="ZLNcmGzdZcA3_jxbhbgN-108">
          <mxGeometry x="248" width="83" height="27" as="geometry">
            <mxRectangle width="83" height="27" as="alternateBounds" />
          </mxGeometry>
        </mxCell>
        <mxCell id="ZLNcmGzdZcA3_jxbhbgN-113" value="" style="shape=tableRow;horizontal=0;startSize=0;swimlaneHead=0;swimlaneBody=0;top=0;left=0;bottom=0;right=0;collapsible=0;dropTarget=0;fillColor=none;points=[[0,0.5],[1,0.5]];portConstraint=eastwest;" vertex="1" parent="ZLNcmGzdZcA3_jxbhbgN-92">
          <mxGeometry y="142" width="331" height="31" as="geometry" />
        </mxCell>
        <mxCell id="ZLNcmGzdZcA3_jxbhbgN-114" value="a2" style="shape=partialRectangle;html=1;whiteSpace=wrap;connectable=0;fillColor=none;top=0;left=0;bottom=0;right=0;overflow=hidden;" vertex="1" parent="ZLNcmGzdZcA3_jxbhbgN-113">
          <mxGeometry width="83" height="31" as="geometry">
            <mxRectangle width="83" height="31" as="alternateBounds" />
          </mxGeometry>
        </mxCell>
        <mxCell id="ZLNcmGzdZcA3_jxbhbgN-115" value="b" style="shape=partialRectangle;html=1;whiteSpace=wrap;connectable=0;fillColor=none;top=0;left=0;bottom=0;right=0;overflow=hidden;" vertex="1" parent="ZLNcmGzdZcA3_jxbhbgN-113">
          <mxGeometry x="83" width="82" height="31" as="geometry">
            <mxRectangle width="82" height="31" as="alternateBounds" />
          </mxGeometry>
        </mxCell>
        <mxCell id="ZLNcmGzdZcA3_jxbhbgN-116" value="" style="shape=partialRectangle;html=1;whiteSpace=wrap;connectable=0;fillColor=none;top=0;left=0;bottom=0;right=0;overflow=hidden;" vertex="1" parent="ZLNcmGzdZcA3_jxbhbgN-113">
          <mxGeometry x="165" width="83" height="31" as="geometry">
            <mxRectangle width="83" height="31" as="alternateBounds" />
          </mxGeometry>
        </mxCell>
        <mxCell id="ZLNcmGzdZcA3_jxbhbgN-117" style="shape=partialRectangle;html=1;whiteSpace=wrap;connectable=0;fillColor=none;top=0;left=0;bottom=0;right=0;overflow=hidden;" vertex="1" parent="ZLNcmGzdZcA3_jxbhbgN-113">
          <mxGeometry x="248" width="83" height="31" as="geometry">
            <mxRectangle width="83" height="31" as="alternateBounds" />
          </mxGeometry>
        </mxCell>
        <mxCell id="ZLNcmGzdZcA3_jxbhbgN-118" value="" style="shape=tableRow;horizontal=0;startSize=0;swimlaneHead=0;swimlaneBody=0;top=0;left=0;bottom=0;right=0;collapsible=0;dropTarget=0;fillColor=none;points=[[0,0.5],[1,0.5]];portConstraint=eastwest;" vertex="1" parent="ZLNcmGzdZcA3_jxbhbgN-92">
          <mxGeometry y="173" width="331" height="27" as="geometry" />
        </mxCell>
        <mxCell id="ZLNcmGzdZcA3_jxbhbgN-119" value="a3" style="shape=partialRectangle;html=1;whiteSpace=wrap;connectable=0;fillColor=#f8cecc;top=0;left=0;bottom=0;right=0;overflow=hidden;strokeColor=#b85450;" vertex="1" parent="ZLNcmGzdZcA3_jxbhbgN-118">
          <mxGeometry width="83" height="27" as="geometry">
            <mxRectangle width="83" height="27" as="alternateBounds" />
          </mxGeometry>
        </mxCell>
        <mxCell id="ZLNcmGzdZcA3_jxbhbgN-120" value="b" style="shape=partialRectangle;html=1;whiteSpace=wrap;connectable=0;fillColor=#f8cecc;top=0;left=0;bottom=0;right=0;overflow=hidden;strokeColor=#b85450;" vertex="1" parent="ZLNcmGzdZcA3_jxbhbgN-118">
          <mxGeometry x="83" width="82" height="27" as="geometry">
            <mxRectangle width="82" height="27" as="alternateBounds" />
          </mxGeometry>
        </mxCell>
        <mxCell id="ZLNcmGzdZcA3_jxbhbgN-121" value="" style="shape=partialRectangle;html=1;whiteSpace=wrap;connectable=0;fillColor=#f8cecc;top=0;left=0;bottom=0;right=0;overflow=hidden;strokeColor=#b85450;" vertex="1" parent="ZLNcmGzdZcA3_jxbhbgN-118">
          <mxGeometry x="165" width="83" height="27" as="geometry">
            <mxRectangle width="83" height="27" as="alternateBounds" />
          </mxGeometry>
        </mxCell>
        <mxCell id="ZLNcmGzdZcA3_jxbhbgN-122" style="shape=partialRectangle;html=1;whiteSpace=wrap;connectable=0;fillColor=#f8cecc;top=0;left=0;bottom=0;right=0;overflow=hidden;strokeColor=#b85450;" vertex="1" parent="ZLNcmGzdZcA3_jxbhbgN-118">
          <mxGeometry x="248" width="83" height="27" as="geometry">
            <mxRectangle width="83" height="27" as="alternateBounds" />
          </mxGeometry>
        </mxCell>
        <mxCell id="ZLNcmGzdZcA3_jxbhbgN-126" value="" style="endArrow=none;dashed=1;html=1;rounded=0;exitX=0;exitY=0.5;exitDx=0;exitDy=0;entryX=1;entryY=0.5;entryDx=0;entryDy=0;" edge="1" parent="ZLNcmGzdZcA3_jxbhbgN-92" source="ZLNcmGzdZcA3_jxbhbgN-98" target="ZLNcmGzdZcA3_jxbhbgN-98">
          <mxGeometry width="50" height="50" relative="1" as="geometry">
            <mxPoint x="1" y="120" as="sourcePoint" />
            <mxPoint x="51" y="70" as="targetPoint" />
          </mxGeometry>
        </mxCell>
        <mxCell id="ZLNcmGzdZcA3_jxbhbgN-123" value="&lt;span style=&quot;color: rgb(77, 77, 77); font-size: 16px; font-style: normal; font-weight: 400; letter-spacing: normal; text-indent: 0px; text-transform: none; word-spacing: 0px; background-color: rgb(255, 255, 255); display: inline; float: none;&quot;&gt;所有可能的匹配都会输出&lt;/span&gt;" style="text;whiteSpace=wrap;html=1;" vertex="1" parent="1">
          <mxGeometry x="560" y="180" width="200" height="30" as="geometry" />
        </mxCell>
        <mxCell id="ZLNcmGzdZcA3_jxbhbgN-127" value="" style="endArrow=none;dashed=1;html=1;rounded=0;exitX=0;exitY=0.5;exitDx=0;exitDy=0;entryX=1;entryY=0.5;entryDx=0;entryDy=0;" edge="1" parent="1">
          <mxGeometry width="50" height="50" relative="1" as="geometry">
            <mxPoint x="199" y="419.5" as="sourcePoint" />
            <mxPoint x="530" y="419.5" as="targetPoint" />
          </mxGeometry>
        </mxCell>
        <mxCell id="ZLNcmGzdZcA3_jxbhbgN-128" value="" style="endArrow=none;dashed=1;html=1;rounded=0;exitX=0;exitY=0.5;exitDx=0;exitDy=0;entryX=1;entryY=0.5;entryDx=0;entryDy=0;" edge="1" parent="1">
          <mxGeometry width="50" height="50" relative="1" as="geometry">
            <mxPoint x="199" y="480" as="sourcePoint" />
            <mxPoint x="530" y="480" as="targetPoint" />
          </mxGeometry>
        </mxCell>
        <mxCell id="ZLNcmGzdZcA3_jxbhbgN-129" value="&lt;span style=&quot;color: rgb(77 , 77 , 77) ; font-size: 16px ; font-style: normal ; font-weight: 400 ; letter-spacing: normal ; text-indent: 0px ; text-transform: none ; word-spacing: 0px ; background-color: rgb(255 , 255 , 255) ; display: inline ; float: none&quot;&gt;找到一个开始的最大匹配之后，&lt;br&gt;跳过开始的所有其他匹配,&lt;br&gt;然后开始下一次匹配&lt;br&gt;&lt;/span&gt;" style="text;whiteSpace=wrap;html=1;" vertex="1" parent="1">
          <mxGeometry x="560" y="410" width="470" height="75" as="geometry" />
        </mxCell>
        <mxCell id="ZLNcmGzdZcA3_jxbhbgN-130" value="【SkipPastLastEvent】" style="shape=table;startSize=30;container=1;collapsible=0;childLayout=tableLayout;fontStyle=1;align=center;" vertex="1" parent="1">
          <mxGeometry x="199" y="560" width="331" height="200" as="geometry" />
        </mxCell>
        <mxCell id="ZLNcmGzdZcA3_jxbhbgN-131" style="shape=tableRow;horizontal=0;startSize=0;swimlaneHead=0;swimlaneBody=0;top=0;left=0;bottom=0;right=0;collapsible=0;dropTarget=0;fillColor=none;points=[[0,0.5],[1,0.5]];portConstraint=eastwest;" vertex="1" parent="ZLNcmGzdZcA3_jxbhbgN-130">
          <mxGeometry y="30" width="331" height="27" as="geometry" />
        </mxCell>
        <mxCell id="ZLNcmGzdZcA3_jxbhbgN-132" value="a1" style="shape=partialRectangle;html=1;whiteSpace=wrap;connectable=0;fillColor=#f8cecc;top=0;left=0;bottom=0;right=0;overflow=hidden;strokeColor=#b85450;" vertex="1" parent="ZLNcmGzdZcA3_jxbhbgN-131">
          <mxGeometry width="83" height="27" as="geometry">
            <mxRectangle width="83" height="27" as="alternateBounds" />
          </mxGeometry>
        </mxCell>
        <mxCell id="ZLNcmGzdZcA3_jxbhbgN-133" value="a2" style="shape=partialRectangle;html=1;whiteSpace=wrap;connectable=0;fillColor=#f8cecc;top=0;left=0;bottom=0;right=0;overflow=hidden;strokeColor=#b85450;" vertex="1" parent="ZLNcmGzdZcA3_jxbhbgN-131">
          <mxGeometry x="83" width="82" height="27" as="geometry">
            <mxRectangle width="82" height="27" as="alternateBounds" />
          </mxGeometry>
        </mxCell>
        <mxCell id="ZLNcmGzdZcA3_jxbhbgN-134" value="a3" style="shape=partialRectangle;html=1;whiteSpace=wrap;connectable=0;fillColor=#f8cecc;top=0;left=0;bottom=0;right=0;overflow=hidden;strokeColor=#b85450;" vertex="1" parent="ZLNcmGzdZcA3_jxbhbgN-131">
          <mxGeometry x="165" width="83" height="27" as="geometry">
            <mxRectangle width="83" height="27" as="alternateBounds" />
          </mxGeometry>
        </mxCell>
        <mxCell id="ZLNcmGzdZcA3_jxbhbgN-135" value="b" style="shape=partialRectangle;html=1;whiteSpace=wrap;connectable=0;fillColor=#f8cecc;top=0;left=0;bottom=0;right=0;overflow=hidden;strokeColor=#b85450;" vertex="1" parent="ZLNcmGzdZcA3_jxbhbgN-131">
          <mxGeometry x="248" width="83" height="27" as="geometry">
            <mxRectangle width="83" height="27" as="alternateBounds" />
          </mxGeometry>
        </mxCell>
        <mxCell id="ZLNcmGzdZcA3_jxbhbgN-136" style="shape=tableRow;horizontal=0;startSize=0;swimlaneHead=0;swimlaneBody=0;top=0;left=0;bottom=0;right=0;collapsible=0;dropTarget=0;fillColor=none;points=[[0,0.5],[1,0.5]];portConstraint=eastwest;" vertex="1" parent="ZLNcmGzdZcA3_jxbhbgN-130">
          <mxGeometry y="57" width="331" height="31" as="geometry" />
        </mxCell>
        <mxCell id="ZLNcmGzdZcA3_jxbhbgN-137" value="a1" style="shape=partialRectangle;html=1;whiteSpace=wrap;connectable=0;fillColor=none;top=0;left=0;bottom=0;right=0;overflow=hidden;" vertex="1" parent="ZLNcmGzdZcA3_jxbhbgN-136">
          <mxGeometry width="83" height="31" as="geometry">
            <mxRectangle width="83" height="31" as="alternateBounds" />
          </mxGeometry>
        </mxCell>
        <mxCell id="ZLNcmGzdZcA3_jxbhbgN-138" value="a2" style="shape=partialRectangle;html=1;whiteSpace=wrap;connectable=0;fillColor=none;top=0;left=0;bottom=0;right=0;overflow=hidden;" vertex="1" parent="ZLNcmGzdZcA3_jxbhbgN-136">
          <mxGeometry x="83" width="82" height="31" as="geometry">
            <mxRectangle width="82" height="31" as="alternateBounds" />
          </mxGeometry>
        </mxCell>
        <mxCell id="ZLNcmGzdZcA3_jxbhbgN-139" value="b" style="shape=partialRectangle;html=1;whiteSpace=wrap;connectable=0;fillColor=none;top=0;left=0;bottom=0;right=0;overflow=hidden;" vertex="1" parent="ZLNcmGzdZcA3_jxbhbgN-136">
          <mxGeometry x="165" width="83" height="31" as="geometry">
            <mxRectangle width="83" height="31" as="alternateBounds" />
          </mxGeometry>
        </mxCell>
        <mxCell id="ZLNcmGzdZcA3_jxbhbgN-140" style="shape=partialRectangle;html=1;whiteSpace=wrap;connectable=0;fillColor=none;top=0;left=0;bottom=0;right=0;overflow=hidden;" vertex="1" parent="ZLNcmGzdZcA3_jxbhbgN-136">
          <mxGeometry x="248" width="83" height="31" as="geometry">
            <mxRectangle width="83" height="31" as="alternateBounds" />
          </mxGeometry>
        </mxCell>
        <mxCell id="ZLNcmGzdZcA3_jxbhbgN-141" style="shape=tableRow;horizontal=0;startSize=0;swimlaneHead=0;swimlaneBody=0;top=0;left=0;bottom=0;right=0;collapsible=0;dropTarget=0;fillColor=none;points=[[0,0.5],[1,0.5]];portConstraint=eastwest;" vertex="1" parent="ZLNcmGzdZcA3_jxbhbgN-130">
          <mxGeometry y="88" width="331" height="27" as="geometry" />
        </mxCell>
        <mxCell id="ZLNcmGzdZcA3_jxbhbgN-142" value="a1" style="shape=partialRectangle;html=1;whiteSpace=wrap;connectable=0;fillColor=none;top=0;left=0;bottom=0;right=0;overflow=hidden;" vertex="1" parent="ZLNcmGzdZcA3_jxbhbgN-141">
          <mxGeometry width="83" height="27" as="geometry">
            <mxRectangle width="83" height="27" as="alternateBounds" />
          </mxGeometry>
        </mxCell>
        <mxCell id="ZLNcmGzdZcA3_jxbhbgN-143" value="b" style="shape=partialRectangle;html=1;whiteSpace=wrap;connectable=0;fillColor=none;top=0;left=0;bottom=0;right=0;overflow=hidden;" vertex="1" parent="ZLNcmGzdZcA3_jxbhbgN-141">
          <mxGeometry x="83" width="82" height="27" as="geometry">
            <mxRectangle width="82" height="27" as="alternateBounds" />
          </mxGeometry>
        </mxCell>
        <mxCell id="ZLNcmGzdZcA3_jxbhbgN-144" style="shape=partialRectangle;html=1;whiteSpace=wrap;connectable=0;fillColor=none;top=0;left=0;bottom=0;right=0;overflow=hidden;" vertex="1" parent="ZLNcmGzdZcA3_jxbhbgN-141">
          <mxGeometry x="165" width="83" height="27" as="geometry">
            <mxRectangle width="83" height="27" as="alternateBounds" />
          </mxGeometry>
        </mxCell>
        <mxCell id="ZLNcmGzdZcA3_jxbhbgN-145" style="shape=partialRectangle;html=1;whiteSpace=wrap;connectable=0;fillColor=none;top=0;left=0;bottom=0;right=0;overflow=hidden;" vertex="1" parent="ZLNcmGzdZcA3_jxbhbgN-141">
          <mxGeometry x="248" width="83" height="27" as="geometry">
            <mxRectangle width="83" height="27" as="alternateBounds" />
          </mxGeometry>
        </mxCell>
        <mxCell id="ZLNcmGzdZcA3_jxbhbgN-146" value="" style="shape=tableRow;horizontal=0;startSize=0;swimlaneHead=0;swimlaneBody=0;top=0;left=0;bottom=0;right=0;collapsible=0;dropTarget=0;fillColor=none;points=[[0,0.5],[1,0.5]];portConstraint=eastwest;" vertex="1" parent="ZLNcmGzdZcA3_jxbhbgN-130">
          <mxGeometry y="115" width="331" height="27" as="geometry" />
        </mxCell>
        <mxCell id="ZLNcmGzdZcA3_jxbhbgN-147" value="a2" style="shape=partialRectangle;html=1;whiteSpace=wrap;connectable=0;fillColor=none;top=0;left=0;bottom=0;right=0;overflow=hidden;" vertex="1" parent="ZLNcmGzdZcA3_jxbhbgN-146">
          <mxGeometry width="83" height="27" as="geometry">
            <mxRectangle width="83" height="27" as="alternateBounds" />
          </mxGeometry>
        </mxCell>
        <mxCell id="ZLNcmGzdZcA3_jxbhbgN-148" value="a3" style="shape=partialRectangle;html=1;whiteSpace=wrap;connectable=0;fillColor=none;top=0;left=0;bottom=0;right=0;overflow=hidden;" vertex="1" parent="ZLNcmGzdZcA3_jxbhbgN-146">
          <mxGeometry x="83" width="82" height="27" as="geometry">
            <mxRectangle width="82" height="27" as="alternateBounds" />
          </mxGeometry>
        </mxCell>
        <mxCell id="ZLNcmGzdZcA3_jxbhbgN-149" value="b" style="shape=partialRectangle;html=1;whiteSpace=wrap;connectable=0;fillColor=none;top=0;left=0;bottom=0;right=0;overflow=hidden;" vertex="1" parent="ZLNcmGzdZcA3_jxbhbgN-146">
          <mxGeometry x="165" width="83" height="27" as="geometry">
            <mxRectangle width="83" height="27" as="alternateBounds" />
          </mxGeometry>
        </mxCell>
        <mxCell id="ZLNcmGzdZcA3_jxbhbgN-150" style="shape=partialRectangle;html=1;whiteSpace=wrap;connectable=0;fillColor=none;top=0;left=0;bottom=0;right=0;overflow=hidden;" vertex="1" parent="ZLNcmGzdZcA3_jxbhbgN-146">
          <mxGeometry x="248" width="83" height="27" as="geometry">
            <mxRectangle width="83" height="27" as="alternateBounds" />
          </mxGeometry>
        </mxCell>
        <mxCell id="ZLNcmGzdZcA3_jxbhbgN-151" value="" style="shape=tableRow;horizontal=0;startSize=0;swimlaneHead=0;swimlaneBody=0;top=0;left=0;bottom=0;right=0;collapsible=0;dropTarget=0;fillColor=none;points=[[0,0.5],[1,0.5]];portConstraint=eastwest;" vertex="1" parent="ZLNcmGzdZcA3_jxbhbgN-130">
          <mxGeometry y="142" width="331" height="31" as="geometry" />
        </mxCell>
        <mxCell id="ZLNcmGzdZcA3_jxbhbgN-152" value="a2" style="shape=partialRectangle;html=1;whiteSpace=wrap;connectable=0;fillColor=none;top=0;left=0;bottom=0;right=0;overflow=hidden;" vertex="1" parent="ZLNcmGzdZcA3_jxbhbgN-151">
          <mxGeometry width="83" height="31" as="geometry">
            <mxRectangle width="83" height="31" as="alternateBounds" />
          </mxGeometry>
        </mxCell>
        <mxCell id="ZLNcmGzdZcA3_jxbhbgN-153" value="b" style="shape=partialRectangle;html=1;whiteSpace=wrap;connectable=0;fillColor=none;top=0;left=0;bottom=0;right=0;overflow=hidden;" vertex="1" parent="ZLNcmGzdZcA3_jxbhbgN-151">
          <mxGeometry x="83" width="82" height="31" as="geometry">
            <mxRectangle width="82" height="31" as="alternateBounds" />
          </mxGeometry>
        </mxCell>
        <mxCell id="ZLNcmGzdZcA3_jxbhbgN-154" value="" style="shape=partialRectangle;html=1;whiteSpace=wrap;connectable=0;fillColor=none;top=0;left=0;bottom=0;right=0;overflow=hidden;" vertex="1" parent="ZLNcmGzdZcA3_jxbhbgN-151">
          <mxGeometry x="165" width="83" height="31" as="geometry">
            <mxRectangle width="83" height="31" as="alternateBounds" />
          </mxGeometry>
        </mxCell>
        <mxCell id="ZLNcmGzdZcA3_jxbhbgN-155" style="shape=partialRectangle;html=1;whiteSpace=wrap;connectable=0;fillColor=none;top=0;left=0;bottom=0;right=0;overflow=hidden;" vertex="1" parent="ZLNcmGzdZcA3_jxbhbgN-151">
          <mxGeometry x="248" width="83" height="31" as="geometry">
            <mxRectangle width="83" height="31" as="alternateBounds" />
          </mxGeometry>
        </mxCell>
        <mxCell id="ZLNcmGzdZcA3_jxbhbgN-156" value="" style="shape=tableRow;horizontal=0;startSize=0;swimlaneHead=0;swimlaneBody=0;top=0;left=0;bottom=0;right=0;collapsible=0;dropTarget=0;fillColor=none;points=[[0,0.5],[1,0.5]];portConstraint=eastwest;" vertex="1" parent="ZLNcmGzdZcA3_jxbhbgN-130">
          <mxGeometry y="173" width="331" height="27" as="geometry" />
        </mxCell>
        <mxCell id="ZLNcmGzdZcA3_jxbhbgN-157" value="a3" style="shape=partialRectangle;html=1;whiteSpace=wrap;connectable=0;fillColor=none;top=0;left=0;bottom=0;right=0;overflow=hidden;" vertex="1" parent="ZLNcmGzdZcA3_jxbhbgN-156">
          <mxGeometry width="83" height="27" as="geometry">
            <mxRectangle width="83" height="27" as="alternateBounds" />
          </mxGeometry>
        </mxCell>
        <mxCell id="ZLNcmGzdZcA3_jxbhbgN-158" value="b" style="shape=partialRectangle;html=1;whiteSpace=wrap;connectable=0;fillColor=none;top=0;left=0;bottom=0;right=0;overflow=hidden;" vertex="1" parent="ZLNcmGzdZcA3_jxbhbgN-156">
          <mxGeometry x="83" width="82" height="27" as="geometry">
            <mxRectangle width="82" height="27" as="alternateBounds" />
          </mxGeometry>
        </mxCell>
        <mxCell id="ZLNcmGzdZcA3_jxbhbgN-159" value="" style="shape=partialRectangle;html=1;whiteSpace=wrap;connectable=0;fillColor=none;top=0;left=0;bottom=0;right=0;overflow=hidden;" vertex="1" parent="ZLNcmGzdZcA3_jxbhbgN-156">
          <mxGeometry x="165" width="83" height="27" as="geometry">
            <mxRectangle width="83" height="27" as="alternateBounds" />
          </mxGeometry>
        </mxCell>
        <mxCell id="ZLNcmGzdZcA3_jxbhbgN-160" style="shape=partialRectangle;html=1;whiteSpace=wrap;connectable=0;fillColor=none;top=0;left=0;bottom=0;right=0;overflow=hidden;" vertex="1" parent="ZLNcmGzdZcA3_jxbhbgN-156">
          <mxGeometry x="248" width="83" height="27" as="geometry">
            <mxRectangle width="83" height="27" as="alternateBounds" />
          </mxGeometry>
        </mxCell>
        <mxCell id="ZLNcmGzdZcA3_jxbhbgN-161" value="&lt;span style=&quot;color: rgb(77 , 77 , 77) ; font-size: 16px ; font-style: normal ; font-weight: 400 ; letter-spacing: normal ; text-indent: 0px ; text-transform: none ; word-spacing: 0px ; background-color: rgb(255 , 255 , 255) ; display: inline ; float: none&quot;&gt;找到一个开始的匹配之后，&lt;br&gt;跳过所有子匹配&lt;br&gt;&lt;/span&gt;" style="text;whiteSpace=wrap;html=1;" vertex="1" parent="1">
          <mxGeometry x="560" y="630" width="470" height="75" as="geometry" />
        </mxCell>
        <mxCell id="ZLNcmGzdZcA3_jxbhbgN-162" value="" style="endArrow=none;dashed=1;html=1;rounded=0;exitX=0;exitY=0.5;exitDx=0;exitDy=0;entryX=1;entryY=0.5;entryDx=0;entryDy=0;" edge="1" parent="1">
          <mxGeometry width="50" height="50" relative="1" as="geometry">
            <mxPoint x="199" y="630" as="sourcePoint" />
            <mxPoint x="530" y="630" as="targetPoint" />
          </mxGeometry>
        </mxCell>
        <mxCell id="ZLNcmGzdZcA3_jxbhbgN-163" value="" style="endArrow=none;dashed=1;html=1;rounded=0;exitX=0;exitY=0.5;exitDx=0;exitDy=0;entryX=1;entryY=0.5;entryDx=0;entryDy=0;" edge="1" parent="1">
          <mxGeometry width="50" height="50" relative="1" as="geometry">
            <mxPoint x="199" y="659.5" as="sourcePoint" />
            <mxPoint x="530" y="659.5" as="targetPoint" />
          </mxGeometry>
        </mxCell>
        <mxCell id="ZLNcmGzdZcA3_jxbhbgN-164" value="" style="endArrow=none;dashed=1;html=1;rounded=0;exitX=0;exitY=0.5;exitDx=0;exitDy=0;entryX=1;entryY=0.5;entryDx=0;entryDy=0;" edge="1" parent="1">
          <mxGeometry width="50" height="50" relative="1" as="geometry">
            <mxPoint x="199" y="690" as="sourcePoint" />
            <mxPoint x="530" y="690" as="targetPoint" />
          </mxGeometry>
        </mxCell>
        <mxCell id="ZLNcmGzdZcA3_jxbhbgN-165" value="" style="endArrow=none;dashed=1;html=1;rounded=0;exitX=0;exitY=0.5;exitDx=0;exitDy=0;entryX=1;entryY=0.5;entryDx=0;entryDy=0;" edge="1" parent="1">
          <mxGeometry width="50" height="50" relative="1" as="geometry">
            <mxPoint x="199" y="720" as="sourcePoint" />
            <mxPoint x="530" y="720" as="targetPoint" />
          </mxGeometry>
        </mxCell>
        <mxCell id="ZLNcmGzdZcA3_jxbhbgN-166" value="" style="endArrow=none;dashed=1;html=1;rounded=0;exitX=0;exitY=0.5;exitDx=0;exitDy=0;entryX=1;entryY=0.5;entryDx=0;entryDy=0;" edge="1" parent="1">
          <mxGeometry width="50" height="50" relative="1" as="geometry">
            <mxPoint x="199" y="930" as="sourcePoint" />
            <mxPoint x="530" y="930" as="targetPoint" />
          </mxGeometry>
        </mxCell>
        <mxCell id="ZLNcmGzdZcA3_jxbhbgN-167" value="【SkipToFirst(patternName=a)】" style="shape=table;startSize=30;container=1;collapsible=0;childLayout=tableLayout;fontStyle=1;align=center;" vertex="1" parent="1">
          <mxGeometry x="199" y="800" width="331" height="200" as="geometry" />
        </mxCell>
        <mxCell id="ZLNcmGzdZcA3_jxbhbgN-168" style="shape=tableRow;horizontal=0;startSize=0;swimlaneHead=0;swimlaneBody=0;top=0;left=0;bottom=0;right=0;collapsible=0;dropTarget=0;fillColor=none;points=[[0,0.5],[1,0.5]];portConstraint=eastwest;" vertex="1" parent="ZLNcmGzdZcA3_jxbhbgN-167">
          <mxGeometry y="30" width="331" height="27" as="geometry" />
        </mxCell>
        <mxCell id="ZLNcmGzdZcA3_jxbhbgN-169" value="a1" style="shape=partialRectangle;html=1;whiteSpace=wrap;connectable=0;fillColor=#f8cecc;top=0;left=0;bottom=0;right=0;overflow=hidden;strokeColor=#b85450;" vertex="1" parent="ZLNcmGzdZcA3_jxbhbgN-168">
          <mxGeometry width="83" height="27" as="geometry">
            <mxRectangle width="83" height="27" as="alternateBounds" />
          </mxGeometry>
        </mxCell>
        <mxCell id="ZLNcmGzdZcA3_jxbhbgN-170" value="a2" style="shape=partialRectangle;html=1;whiteSpace=wrap;connectable=0;fillColor=#f8cecc;top=0;left=0;bottom=0;right=0;overflow=hidden;strokeColor=#b85450;" vertex="1" parent="ZLNcmGzdZcA3_jxbhbgN-168">
          <mxGeometry x="83" width="82" height="27" as="geometry">
            <mxRectangle width="82" height="27" as="alternateBounds" />
          </mxGeometry>
        </mxCell>
        <mxCell id="ZLNcmGzdZcA3_jxbhbgN-171" value="a3" style="shape=partialRectangle;html=1;whiteSpace=wrap;connectable=0;fillColor=#f8cecc;top=0;left=0;bottom=0;right=0;overflow=hidden;strokeColor=#b85450;" vertex="1" parent="ZLNcmGzdZcA3_jxbhbgN-168">
          <mxGeometry x="165" width="83" height="27" as="geometry">
            <mxRectangle width="83" height="27" as="alternateBounds" />
          </mxGeometry>
        </mxCell>
        <mxCell id="ZLNcmGzdZcA3_jxbhbgN-172" value="b" style="shape=partialRectangle;html=1;whiteSpace=wrap;connectable=0;fillColor=#f8cecc;top=0;left=0;bottom=0;right=0;overflow=hidden;strokeColor=#b85450;" vertex="1" parent="ZLNcmGzdZcA3_jxbhbgN-168">
          <mxGeometry x="248" width="83" height="27" as="geometry">
            <mxRectangle width="83" height="27" as="alternateBounds" />
          </mxGeometry>
        </mxCell>
        <mxCell id="ZLNcmGzdZcA3_jxbhbgN-173" style="shape=tableRow;horizontal=0;startSize=0;swimlaneHead=0;swimlaneBody=0;top=0;left=0;bottom=0;right=0;collapsible=0;dropTarget=0;fillColor=none;points=[[0,0.5],[1,0.5]];portConstraint=eastwest;" vertex="1" parent="ZLNcmGzdZcA3_jxbhbgN-167">
          <mxGeometry y="57" width="331" height="31" as="geometry" />
        </mxCell>
        <mxCell id="ZLNcmGzdZcA3_jxbhbgN-174" value="a1" style="shape=partialRectangle;html=1;whiteSpace=wrap;connectable=0;fillColor=#f8cecc;top=0;left=0;bottom=0;right=0;overflow=hidden;strokeColor=#b85450;" vertex="1" parent="ZLNcmGzdZcA3_jxbhbgN-173">
          <mxGeometry width="83" height="31" as="geometry">
            <mxRectangle width="83" height="31" as="alternateBounds" />
          </mxGeometry>
        </mxCell>
        <mxCell id="ZLNcmGzdZcA3_jxbhbgN-175" value="a2" style="shape=partialRectangle;html=1;whiteSpace=wrap;connectable=0;fillColor=#f8cecc;top=0;left=0;bottom=0;right=0;overflow=hidden;strokeColor=#b85450;" vertex="1" parent="ZLNcmGzdZcA3_jxbhbgN-173">
          <mxGeometry x="83" width="82" height="31" as="geometry">
            <mxRectangle width="82" height="31" as="alternateBounds" />
          </mxGeometry>
        </mxCell>
        <mxCell id="ZLNcmGzdZcA3_jxbhbgN-176" value="b" style="shape=partialRectangle;html=1;whiteSpace=wrap;connectable=0;fillColor=#f8cecc;top=0;left=0;bottom=0;right=0;overflow=hidden;strokeColor=#b85450;" vertex="1" parent="ZLNcmGzdZcA3_jxbhbgN-173">
          <mxGeometry x="165" width="83" height="31" as="geometry">
            <mxRectangle width="83" height="31" as="alternateBounds" />
          </mxGeometry>
        </mxCell>
        <mxCell id="ZLNcmGzdZcA3_jxbhbgN-177" style="shape=partialRectangle;html=1;whiteSpace=wrap;connectable=0;fillColor=#f8cecc;top=0;left=0;bottom=0;right=0;overflow=hidden;strokeColor=#b85450;" vertex="1" parent="ZLNcmGzdZcA3_jxbhbgN-173">
          <mxGeometry x="248" width="83" height="31" as="geometry">
            <mxRectangle width="83" height="31" as="alternateBounds" />
          </mxGeometry>
        </mxCell>
        <mxCell id="ZLNcmGzdZcA3_jxbhbgN-178" style="shape=tableRow;horizontal=0;startSize=0;swimlaneHead=0;swimlaneBody=0;top=0;left=0;bottom=0;right=0;collapsible=0;dropTarget=0;fillColor=none;points=[[0,0.5],[1,0.5]];portConstraint=eastwest;" vertex="1" parent="ZLNcmGzdZcA3_jxbhbgN-167">
          <mxGeometry y="88" width="331" height="27" as="geometry" />
        </mxCell>
        <mxCell id="ZLNcmGzdZcA3_jxbhbgN-179" value="a1" style="shape=partialRectangle;html=1;whiteSpace=wrap;connectable=0;fillColor=#f8cecc;top=0;left=0;bottom=0;right=0;overflow=hidden;strokeColor=#b85450;" vertex="1" parent="ZLNcmGzdZcA3_jxbhbgN-178">
          <mxGeometry width="83" height="27" as="geometry">
            <mxRectangle width="83" height="27" as="alternateBounds" />
          </mxGeometry>
        </mxCell>
        <mxCell id="ZLNcmGzdZcA3_jxbhbgN-180" value="b" style="shape=partialRectangle;html=1;whiteSpace=wrap;connectable=0;fillColor=#f8cecc;top=0;left=0;bottom=0;right=0;overflow=hidden;strokeColor=#b85450;" vertex="1" parent="ZLNcmGzdZcA3_jxbhbgN-178">
          <mxGeometry x="83" width="82" height="27" as="geometry">
            <mxRectangle width="82" height="27" as="alternateBounds" />
          </mxGeometry>
        </mxCell>
        <mxCell id="ZLNcmGzdZcA3_jxbhbgN-181" style="shape=partialRectangle;html=1;whiteSpace=wrap;connectable=0;fillColor=#f8cecc;top=0;left=0;bottom=0;right=0;overflow=hidden;strokeColor=#b85450;" vertex="1" parent="ZLNcmGzdZcA3_jxbhbgN-178">
          <mxGeometry x="165" width="83" height="27" as="geometry">
            <mxRectangle width="83" height="27" as="alternateBounds" />
          </mxGeometry>
        </mxCell>
        <mxCell id="ZLNcmGzdZcA3_jxbhbgN-182" style="shape=partialRectangle;html=1;whiteSpace=wrap;connectable=0;fillColor=#f8cecc;top=0;left=0;bottom=0;right=0;overflow=hidden;strokeColor=#b85450;" vertex="1" parent="ZLNcmGzdZcA3_jxbhbgN-178">
          <mxGeometry x="248" width="83" height="27" as="geometry">
            <mxRectangle width="83" height="27" as="alternateBounds" />
          </mxGeometry>
        </mxCell>
        <mxCell id="ZLNcmGzdZcA3_jxbhbgN-183" value="" style="shape=tableRow;horizontal=0;startSize=0;swimlaneHead=0;swimlaneBody=0;top=0;left=0;bottom=0;right=0;collapsible=0;dropTarget=0;fillColor=none;points=[[0,0.5],[1,0.5]];portConstraint=eastwest;" vertex="1" parent="ZLNcmGzdZcA3_jxbhbgN-167">
          <mxGeometry y="115" width="331" height="27" as="geometry" />
        </mxCell>
        <mxCell id="ZLNcmGzdZcA3_jxbhbgN-184" value="a2" style="shape=partialRectangle;html=1;whiteSpace=wrap;connectable=0;fillColor=none;top=0;left=0;bottom=0;right=0;overflow=hidden;" vertex="1" parent="ZLNcmGzdZcA3_jxbhbgN-183">
          <mxGeometry width="83" height="27" as="geometry">
            <mxRectangle width="83" height="27" as="alternateBounds" />
          </mxGeometry>
        </mxCell>
        <mxCell id="ZLNcmGzdZcA3_jxbhbgN-185" value="a3" style="shape=partialRectangle;html=1;whiteSpace=wrap;connectable=0;fillColor=none;top=0;left=0;bottom=0;right=0;overflow=hidden;" vertex="1" parent="ZLNcmGzdZcA3_jxbhbgN-183">
          <mxGeometry x="83" width="82" height="27" as="geometry">
            <mxRectangle width="82" height="27" as="alternateBounds" />
          </mxGeometry>
        </mxCell>
        <mxCell id="ZLNcmGzdZcA3_jxbhbgN-186" value="b" style="shape=partialRectangle;html=1;whiteSpace=wrap;connectable=0;fillColor=none;top=0;left=0;bottom=0;right=0;overflow=hidden;" vertex="1" parent="ZLNcmGzdZcA3_jxbhbgN-183">
          <mxGeometry x="165" width="83" height="27" as="geometry">
            <mxRectangle width="83" height="27" as="alternateBounds" />
          </mxGeometry>
        </mxCell>
        <mxCell id="ZLNcmGzdZcA3_jxbhbgN-187" style="shape=partialRectangle;html=1;whiteSpace=wrap;connectable=0;fillColor=none;top=0;left=0;bottom=0;right=0;overflow=hidden;" vertex="1" parent="ZLNcmGzdZcA3_jxbhbgN-183">
          <mxGeometry x="248" width="83" height="27" as="geometry">
            <mxRectangle width="83" height="27" as="alternateBounds" />
          </mxGeometry>
        </mxCell>
        <mxCell id="ZLNcmGzdZcA3_jxbhbgN-188" value="" style="shape=tableRow;horizontal=0;startSize=0;swimlaneHead=0;swimlaneBody=0;top=0;left=0;bottom=0;right=0;collapsible=0;dropTarget=0;fillColor=none;points=[[0,0.5],[1,0.5]];portConstraint=eastwest;" vertex="1" parent="ZLNcmGzdZcA3_jxbhbgN-167">
          <mxGeometry y="142" width="331" height="31" as="geometry" />
        </mxCell>
        <mxCell id="ZLNcmGzdZcA3_jxbhbgN-189" value="a2" style="shape=partialRectangle;html=1;whiteSpace=wrap;connectable=0;fillColor=none;top=0;left=0;bottom=0;right=0;overflow=hidden;" vertex="1" parent="ZLNcmGzdZcA3_jxbhbgN-188">
          <mxGeometry width="83" height="31" as="geometry">
            <mxRectangle width="83" height="31" as="alternateBounds" />
          </mxGeometry>
        </mxCell>
        <mxCell id="ZLNcmGzdZcA3_jxbhbgN-190" value="b" style="shape=partialRectangle;html=1;whiteSpace=wrap;connectable=0;fillColor=none;top=0;left=0;bottom=0;right=0;overflow=hidden;" vertex="1" parent="ZLNcmGzdZcA3_jxbhbgN-188">
          <mxGeometry x="83" width="82" height="31" as="geometry">
            <mxRectangle width="82" height="31" as="alternateBounds" />
          </mxGeometry>
        </mxCell>
        <mxCell id="ZLNcmGzdZcA3_jxbhbgN-191" value="" style="shape=partialRectangle;html=1;whiteSpace=wrap;connectable=0;fillColor=none;top=0;left=0;bottom=0;right=0;overflow=hidden;" vertex="1" parent="ZLNcmGzdZcA3_jxbhbgN-188">
          <mxGeometry x="165" width="83" height="31" as="geometry">
            <mxRectangle width="83" height="31" as="alternateBounds" />
          </mxGeometry>
        </mxCell>
        <mxCell id="ZLNcmGzdZcA3_jxbhbgN-192" style="shape=partialRectangle;html=1;whiteSpace=wrap;connectable=0;fillColor=none;top=0;left=0;bottom=0;right=0;overflow=hidden;" vertex="1" parent="ZLNcmGzdZcA3_jxbhbgN-188">
          <mxGeometry x="248" width="83" height="31" as="geometry">
            <mxRectangle width="83" height="31" as="alternateBounds" />
          </mxGeometry>
        </mxCell>
        <mxCell id="ZLNcmGzdZcA3_jxbhbgN-193" value="" style="shape=tableRow;horizontal=0;startSize=0;swimlaneHead=0;swimlaneBody=0;top=0;left=0;bottom=0;right=0;collapsible=0;dropTarget=0;fillColor=none;points=[[0,0.5],[1,0.5]];portConstraint=eastwest;" vertex="1" parent="ZLNcmGzdZcA3_jxbhbgN-167">
          <mxGeometry y="173" width="331" height="27" as="geometry" />
        </mxCell>
        <mxCell id="ZLNcmGzdZcA3_jxbhbgN-194" value="a3" style="shape=partialRectangle;html=1;whiteSpace=wrap;connectable=0;fillColor=none;top=0;left=0;bottom=0;right=0;overflow=hidden;" vertex="1" parent="ZLNcmGzdZcA3_jxbhbgN-193">
          <mxGeometry width="83" height="27" as="geometry">
            <mxRectangle width="83" height="27" as="alternateBounds" />
          </mxGeometry>
        </mxCell>
        <mxCell id="ZLNcmGzdZcA3_jxbhbgN-195" value="b" style="shape=partialRectangle;html=1;whiteSpace=wrap;connectable=0;fillColor=none;top=0;left=0;bottom=0;right=0;overflow=hidden;" vertex="1" parent="ZLNcmGzdZcA3_jxbhbgN-193">
          <mxGeometry x="83" width="82" height="27" as="geometry">
            <mxRectangle width="82" height="27" as="alternateBounds" />
          </mxGeometry>
        </mxCell>
        <mxCell id="ZLNcmGzdZcA3_jxbhbgN-196" value="" style="shape=partialRectangle;html=1;whiteSpace=wrap;connectable=0;fillColor=none;top=0;left=0;bottom=0;right=0;overflow=hidden;" vertex="1" parent="ZLNcmGzdZcA3_jxbhbgN-193">
          <mxGeometry x="165" width="83" height="27" as="geometry">
            <mxRectangle width="83" height="27" as="alternateBounds" />
          </mxGeometry>
        </mxCell>
        <mxCell id="ZLNcmGzdZcA3_jxbhbgN-197" style="shape=partialRectangle;html=1;whiteSpace=wrap;connectable=0;fillColor=none;top=0;left=0;bottom=0;right=0;overflow=hidden;" vertex="1" parent="ZLNcmGzdZcA3_jxbhbgN-193">
          <mxGeometry x="248" width="83" height="27" as="geometry">
            <mxRectangle width="83" height="27" as="alternateBounds" />
          </mxGeometry>
        </mxCell>
        <mxCell id="ZLNcmGzdZcA3_jxbhbgN-198" value="&lt;span style=&quot;color: rgb(77 , 77 , 77) ; font-size: 16px ; font-style: normal ; font-weight: 400 ; letter-spacing: normal ; text-indent: 0px ; text-transform: none ; word-spacing: 0px ; background-color: rgb(255 , 255 , 255) ; display: inline ; float: none&quot;&gt;指明跳至哪个模式的第一个匹配事件。&lt;br&gt;找到 a1 开始的匹配（a1 a2 a3 b）后，&lt;br&gt;跳到以最开始一个 a（也就是 a1）&lt;br&gt;为开始的匹配，相当于只留下 a1 &lt;br&gt;开始的匹配。&lt;/span&gt;" style="text;whiteSpace=wrap;html=1;" vertex="1" parent="1">
          <mxGeometry x="560" y="870" width="550" height="60" as="geometry" />
        </mxCell>
        <mxCell id="ZLNcmGzdZcA3_jxbhbgN-199" value="【SkipToLast(PatternName=a)】" style="shape=table;startSize=30;container=1;collapsible=0;childLayout=tableLayout;fontStyle=1;align=center;" vertex="1" parent="1">
          <mxGeometry x="199" y="1040" width="331" height="200" as="geometry" />
        </mxCell>
        <mxCell id="ZLNcmGzdZcA3_jxbhbgN-200" style="shape=tableRow;horizontal=0;startSize=0;swimlaneHead=0;swimlaneBody=0;top=0;left=0;bottom=0;right=0;collapsible=0;dropTarget=0;fillColor=none;points=[[0,0.5],[1,0.5]];portConstraint=eastwest;" vertex="1" parent="ZLNcmGzdZcA3_jxbhbgN-199">
          <mxGeometry y="30" width="331" height="27" as="geometry" />
        </mxCell>
        <mxCell id="ZLNcmGzdZcA3_jxbhbgN-201" value="a1" style="shape=partialRectangle;html=1;whiteSpace=wrap;connectable=0;fillColor=#f8cecc;top=0;left=0;bottom=0;right=0;overflow=hidden;strokeColor=#b85450;" vertex="1" parent="ZLNcmGzdZcA3_jxbhbgN-200">
          <mxGeometry width="83" height="27" as="geometry">
            <mxRectangle width="83" height="27" as="alternateBounds" />
          </mxGeometry>
        </mxCell>
        <mxCell id="ZLNcmGzdZcA3_jxbhbgN-202" value="a2" style="shape=partialRectangle;html=1;whiteSpace=wrap;connectable=0;fillColor=#f8cecc;top=0;left=0;bottom=0;right=0;overflow=hidden;strokeColor=#b85450;" vertex="1" parent="ZLNcmGzdZcA3_jxbhbgN-200">
          <mxGeometry x="83" width="82" height="27" as="geometry">
            <mxRectangle width="82" height="27" as="alternateBounds" />
          </mxGeometry>
        </mxCell>
        <mxCell id="ZLNcmGzdZcA3_jxbhbgN-203" value="a3" style="shape=partialRectangle;html=1;whiteSpace=wrap;connectable=0;fillColor=#f8cecc;top=0;left=0;bottom=0;right=0;overflow=hidden;strokeColor=#b85450;" vertex="1" parent="ZLNcmGzdZcA3_jxbhbgN-200">
          <mxGeometry x="165" width="83" height="27" as="geometry">
            <mxRectangle width="83" height="27" as="alternateBounds" />
          </mxGeometry>
        </mxCell>
        <mxCell id="ZLNcmGzdZcA3_jxbhbgN-204" value="b" style="shape=partialRectangle;html=1;whiteSpace=wrap;connectable=0;fillColor=#f8cecc;top=0;left=0;bottom=0;right=0;overflow=hidden;strokeColor=#b85450;" vertex="1" parent="ZLNcmGzdZcA3_jxbhbgN-200">
          <mxGeometry x="248" width="83" height="27" as="geometry">
            <mxRectangle width="83" height="27" as="alternateBounds" />
          </mxGeometry>
        </mxCell>
        <mxCell id="ZLNcmGzdZcA3_jxbhbgN-205" style="shape=tableRow;horizontal=0;startSize=0;swimlaneHead=0;swimlaneBody=0;top=0;left=0;bottom=0;right=0;collapsible=0;dropTarget=0;fillColor=none;points=[[0,0.5],[1,0.5]];portConstraint=eastwest;" vertex="1" parent="ZLNcmGzdZcA3_jxbhbgN-199">
          <mxGeometry y="57" width="331" height="31" as="geometry" />
        </mxCell>
        <mxCell id="ZLNcmGzdZcA3_jxbhbgN-206" value="a1" style="shape=partialRectangle;html=1;whiteSpace=wrap;connectable=0;fillColor=none;top=0;left=0;bottom=0;right=0;overflow=hidden;" vertex="1" parent="ZLNcmGzdZcA3_jxbhbgN-205">
          <mxGeometry width="83" height="31" as="geometry">
            <mxRectangle width="83" height="31" as="alternateBounds" />
          </mxGeometry>
        </mxCell>
        <mxCell id="ZLNcmGzdZcA3_jxbhbgN-207" value="a2" style="shape=partialRectangle;html=1;whiteSpace=wrap;connectable=0;fillColor=none;top=0;left=0;bottom=0;right=0;overflow=hidden;" vertex="1" parent="ZLNcmGzdZcA3_jxbhbgN-205">
          <mxGeometry x="83" width="82" height="31" as="geometry">
            <mxRectangle width="82" height="31" as="alternateBounds" />
          </mxGeometry>
        </mxCell>
        <mxCell id="ZLNcmGzdZcA3_jxbhbgN-208" value="b" style="shape=partialRectangle;html=1;whiteSpace=wrap;connectable=0;fillColor=none;top=0;left=0;bottom=0;right=0;overflow=hidden;" vertex="1" parent="ZLNcmGzdZcA3_jxbhbgN-205">
          <mxGeometry x="165" width="83" height="31" as="geometry">
            <mxRectangle width="83" height="31" as="alternateBounds" />
          </mxGeometry>
        </mxCell>
        <mxCell id="ZLNcmGzdZcA3_jxbhbgN-209" style="shape=partialRectangle;html=1;whiteSpace=wrap;connectable=0;fillColor=none;top=0;left=0;bottom=0;right=0;overflow=hidden;" vertex="1" parent="ZLNcmGzdZcA3_jxbhbgN-205">
          <mxGeometry x="248" width="83" height="31" as="geometry">
            <mxRectangle width="83" height="31" as="alternateBounds" />
          </mxGeometry>
        </mxCell>
        <mxCell id="ZLNcmGzdZcA3_jxbhbgN-210" style="shape=tableRow;horizontal=0;startSize=0;swimlaneHead=0;swimlaneBody=0;top=0;left=0;bottom=0;right=0;collapsible=0;dropTarget=0;fillColor=none;points=[[0,0.5],[1,0.5]];portConstraint=eastwest;" vertex="1" parent="ZLNcmGzdZcA3_jxbhbgN-199">
          <mxGeometry y="88" width="331" height="27" as="geometry" />
        </mxCell>
        <mxCell id="ZLNcmGzdZcA3_jxbhbgN-211" value="a1" style="shape=partialRectangle;html=1;whiteSpace=wrap;connectable=0;fillColor=none;top=0;left=0;bottom=0;right=0;overflow=hidden;" vertex="1" parent="ZLNcmGzdZcA3_jxbhbgN-210">
          <mxGeometry width="83" height="27" as="geometry">
            <mxRectangle width="83" height="27" as="alternateBounds" />
          </mxGeometry>
        </mxCell>
        <mxCell id="ZLNcmGzdZcA3_jxbhbgN-212" value="b" style="shape=partialRectangle;html=1;whiteSpace=wrap;connectable=0;fillColor=none;top=0;left=0;bottom=0;right=0;overflow=hidden;" vertex="1" parent="ZLNcmGzdZcA3_jxbhbgN-210">
          <mxGeometry x="83" width="82" height="27" as="geometry">
            <mxRectangle width="82" height="27" as="alternateBounds" />
          </mxGeometry>
        </mxCell>
        <mxCell id="ZLNcmGzdZcA3_jxbhbgN-213" style="shape=partialRectangle;html=1;whiteSpace=wrap;connectable=0;fillColor=none;top=0;left=0;bottom=0;right=0;overflow=hidden;" vertex="1" parent="ZLNcmGzdZcA3_jxbhbgN-210">
          <mxGeometry x="165" width="83" height="27" as="geometry">
            <mxRectangle width="83" height="27" as="alternateBounds" />
          </mxGeometry>
        </mxCell>
        <mxCell id="ZLNcmGzdZcA3_jxbhbgN-214" style="shape=partialRectangle;html=1;whiteSpace=wrap;connectable=0;fillColor=none;top=0;left=0;bottom=0;right=0;overflow=hidden;" vertex="1" parent="ZLNcmGzdZcA3_jxbhbgN-210">
          <mxGeometry x="248" width="83" height="27" as="geometry">
            <mxRectangle width="83" height="27" as="alternateBounds" />
          </mxGeometry>
        </mxCell>
        <mxCell id="ZLNcmGzdZcA3_jxbhbgN-215" value="" style="shape=tableRow;horizontal=0;startSize=0;swimlaneHead=0;swimlaneBody=0;top=0;left=0;bottom=0;right=0;collapsible=0;dropTarget=0;fillColor=none;points=[[0,0.5],[1,0.5]];portConstraint=eastwest;" vertex="1" parent="ZLNcmGzdZcA3_jxbhbgN-199">
          <mxGeometry y="115" width="331" height="27" as="geometry" />
        </mxCell>
        <mxCell id="ZLNcmGzdZcA3_jxbhbgN-216" value="a2" style="shape=partialRectangle;html=1;whiteSpace=wrap;connectable=0;fillColor=none;top=0;left=0;bottom=0;right=0;overflow=hidden;" vertex="1" parent="ZLNcmGzdZcA3_jxbhbgN-215">
          <mxGeometry width="83" height="27" as="geometry">
            <mxRectangle width="83" height="27" as="alternateBounds" />
          </mxGeometry>
        </mxCell>
        <mxCell id="ZLNcmGzdZcA3_jxbhbgN-217" value="a3" style="shape=partialRectangle;html=1;whiteSpace=wrap;connectable=0;fillColor=none;top=0;left=0;bottom=0;right=0;overflow=hidden;" vertex="1" parent="ZLNcmGzdZcA3_jxbhbgN-215">
          <mxGeometry x="83" width="82" height="27" as="geometry">
            <mxRectangle width="82" height="27" as="alternateBounds" />
          </mxGeometry>
        </mxCell>
        <mxCell id="ZLNcmGzdZcA3_jxbhbgN-218" value="b" style="shape=partialRectangle;html=1;whiteSpace=wrap;connectable=0;fillColor=none;top=0;left=0;bottom=0;right=0;overflow=hidden;" vertex="1" parent="ZLNcmGzdZcA3_jxbhbgN-215">
          <mxGeometry x="165" width="83" height="27" as="geometry">
            <mxRectangle width="83" height="27" as="alternateBounds" />
          </mxGeometry>
        </mxCell>
        <mxCell id="ZLNcmGzdZcA3_jxbhbgN-219" style="shape=partialRectangle;html=1;whiteSpace=wrap;connectable=0;fillColor=none;top=0;left=0;bottom=0;right=0;overflow=hidden;" vertex="1" parent="ZLNcmGzdZcA3_jxbhbgN-215">
          <mxGeometry x="248" width="83" height="27" as="geometry">
            <mxRectangle width="83" height="27" as="alternateBounds" />
          </mxGeometry>
        </mxCell>
        <mxCell id="ZLNcmGzdZcA3_jxbhbgN-220" value="" style="shape=tableRow;horizontal=0;startSize=0;swimlaneHead=0;swimlaneBody=0;top=0;left=0;bottom=0;right=0;collapsible=0;dropTarget=0;fillColor=none;points=[[0,0.5],[1,0.5]];portConstraint=eastwest;" vertex="1" parent="ZLNcmGzdZcA3_jxbhbgN-199">
          <mxGeometry y="142" width="331" height="31" as="geometry" />
        </mxCell>
        <mxCell id="ZLNcmGzdZcA3_jxbhbgN-221" value="a2" style="shape=partialRectangle;html=1;whiteSpace=wrap;connectable=0;fillColor=none;top=0;left=0;bottom=0;right=0;overflow=hidden;" vertex="1" parent="ZLNcmGzdZcA3_jxbhbgN-220">
          <mxGeometry width="83" height="31" as="geometry">
            <mxRectangle width="83" height="31" as="alternateBounds" />
          </mxGeometry>
        </mxCell>
        <mxCell id="ZLNcmGzdZcA3_jxbhbgN-222" value="b" style="shape=partialRectangle;html=1;whiteSpace=wrap;connectable=0;fillColor=none;top=0;left=0;bottom=0;right=0;overflow=hidden;" vertex="1" parent="ZLNcmGzdZcA3_jxbhbgN-220">
          <mxGeometry x="83" width="82" height="31" as="geometry">
            <mxRectangle width="82" height="31" as="alternateBounds" />
          </mxGeometry>
        </mxCell>
        <mxCell id="ZLNcmGzdZcA3_jxbhbgN-223" value="" style="shape=partialRectangle;html=1;whiteSpace=wrap;connectable=0;fillColor=none;top=0;left=0;bottom=0;right=0;overflow=hidden;" vertex="1" parent="ZLNcmGzdZcA3_jxbhbgN-220">
          <mxGeometry x="165" width="83" height="31" as="geometry">
            <mxRectangle width="83" height="31" as="alternateBounds" />
          </mxGeometry>
        </mxCell>
        <mxCell id="ZLNcmGzdZcA3_jxbhbgN-224" style="shape=partialRectangle;html=1;whiteSpace=wrap;connectable=0;fillColor=none;top=0;left=0;bottom=0;right=0;overflow=hidden;" vertex="1" parent="ZLNcmGzdZcA3_jxbhbgN-220">
          <mxGeometry x="248" width="83" height="31" as="geometry">
            <mxRectangle width="83" height="31" as="alternateBounds" />
          </mxGeometry>
        </mxCell>
        <mxCell id="ZLNcmGzdZcA3_jxbhbgN-225" value="" style="shape=tableRow;horizontal=0;startSize=0;swimlaneHead=0;swimlaneBody=0;top=0;left=0;bottom=0;right=0;collapsible=0;dropTarget=0;fillColor=none;points=[[0,0.5],[1,0.5]];portConstraint=eastwest;" vertex="1" parent="ZLNcmGzdZcA3_jxbhbgN-199">
          <mxGeometry y="173" width="331" height="27" as="geometry" />
        </mxCell>
        <mxCell id="ZLNcmGzdZcA3_jxbhbgN-226" value="a3" style="shape=partialRectangle;html=1;whiteSpace=wrap;connectable=0;fillColor=#f8cecc;top=0;left=0;bottom=0;right=0;overflow=hidden;strokeColor=#b85450;" vertex="1" parent="ZLNcmGzdZcA3_jxbhbgN-225">
          <mxGeometry width="83" height="27" as="geometry">
            <mxRectangle width="83" height="27" as="alternateBounds" />
          </mxGeometry>
        </mxCell>
        <mxCell id="ZLNcmGzdZcA3_jxbhbgN-227" value="b" style="shape=partialRectangle;html=1;whiteSpace=wrap;connectable=0;fillColor=#f8cecc;top=0;left=0;bottom=0;right=0;overflow=hidden;strokeColor=#b85450;" vertex="1" parent="ZLNcmGzdZcA3_jxbhbgN-225">
          <mxGeometry x="83" width="82" height="27" as="geometry">
            <mxRectangle width="82" height="27" as="alternateBounds" />
          </mxGeometry>
        </mxCell>
        <mxCell id="ZLNcmGzdZcA3_jxbhbgN-228" value="" style="shape=partialRectangle;html=1;whiteSpace=wrap;connectable=0;fillColor=#f8cecc;top=0;left=0;bottom=0;right=0;overflow=hidden;strokeColor=#b85450;" vertex="1" parent="ZLNcmGzdZcA3_jxbhbgN-225">
          <mxGeometry x="165" width="83" height="27" as="geometry">
            <mxRectangle width="83" height="27" as="alternateBounds" />
          </mxGeometry>
        </mxCell>
        <mxCell id="ZLNcmGzdZcA3_jxbhbgN-229" style="shape=partialRectangle;html=1;whiteSpace=wrap;connectable=0;fillColor=#f8cecc;top=0;left=0;bottom=0;right=0;overflow=hidden;strokeColor=#b85450;" vertex="1" parent="ZLNcmGzdZcA3_jxbhbgN-225">
          <mxGeometry x="248" width="83" height="27" as="geometry">
            <mxRectangle width="83" height="27" as="alternateBounds" />
          </mxGeometry>
        </mxCell>
        <mxCell id="ZLNcmGzdZcA3_jxbhbgN-230" value="" style="endArrow=none;dashed=1;html=1;rounded=0;exitX=0;exitY=0.5;exitDx=0;exitDy=0;entryX=1;entryY=0.5;entryDx=0;entryDy=0;" edge="1" parent="1">
          <mxGeometry width="50" height="50" relative="1" as="geometry">
            <mxPoint x="209" y="760" as="sourcePoint" />
            <mxPoint x="540" y="760" as="targetPoint" />
          </mxGeometry>
        </mxCell>
        <mxCell id="ZLNcmGzdZcA3_jxbhbgN-231" value="" style="endArrow=none;dashed=1;html=1;rounded=0;exitX=0;exitY=0.5;exitDx=0;exitDy=0;entryX=1;entryY=0.5;entryDx=0;entryDy=0;" edge="1" parent="1">
          <mxGeometry width="50" height="50" relative="1" as="geometry">
            <mxPoint x="199" y="960" as="sourcePoint" />
            <mxPoint x="530" y="960" as="targetPoint" />
          </mxGeometry>
        </mxCell>
        <mxCell id="ZLNcmGzdZcA3_jxbhbgN-232" value="" style="endArrow=none;dashed=1;html=1;rounded=0;exitX=0;exitY=0.5;exitDx=0;exitDy=0;entryX=1;entryY=0.5;entryDx=0;entryDy=0;" edge="1" parent="1">
          <mxGeometry width="50" height="50" relative="1" as="geometry">
            <mxPoint x="199" y="990" as="sourcePoint" />
            <mxPoint x="530" y="990" as="targetPoint" />
          </mxGeometry>
        </mxCell>
        <mxCell id="ZLNcmGzdZcA3_jxbhbgN-264" value="" style="endArrow=none;dashed=1;html=1;rounded=0;exitX=0;exitY=0.5;exitDx=0;exitDy=0;entryX=1;entryY=0.5;entryDx=0;entryDy=0;" edge="1" parent="1">
          <mxGeometry width="50" height="50" relative="1" as="geometry">
            <mxPoint x="199" y="1112" as="sourcePoint" />
            <mxPoint x="530" y="1112" as="targetPoint" />
          </mxGeometry>
        </mxCell>
        <mxCell id="ZLNcmGzdZcA3_jxbhbgN-265" value="" style="endArrow=none;dashed=1;html=1;rounded=0;exitX=0;exitY=0.5;exitDx=0;exitDy=0;entryX=1;entryY=0.5;entryDx=0;entryDy=0;" edge="1" parent="1">
          <mxGeometry width="50" height="50" relative="1" as="geometry">
            <mxPoint x="198" y="1140.5" as="sourcePoint" />
            <mxPoint x="529" y="1140.5" as="targetPoint" />
          </mxGeometry>
        </mxCell>
        <mxCell id="ZLNcmGzdZcA3_jxbhbgN-266" value="" style="endArrow=none;dashed=1;html=1;rounded=0;exitX=0;exitY=0.5;exitDx=0;exitDy=0;entryX=1;entryY=0.5;entryDx=0;entryDy=0;" edge="1" parent="1">
          <mxGeometry width="50" height="50" relative="1" as="geometry">
            <mxPoint x="199" y="1168.5" as="sourcePoint" />
            <mxPoint x="530" y="1168.5" as="targetPoint" />
          </mxGeometry>
        </mxCell>
        <mxCell id="ZLNcmGzdZcA3_jxbhbgN-267" value="" style="endArrow=none;dashed=1;html=1;rounded=0;exitX=0;exitY=0.5;exitDx=0;exitDy=0;entryX=1;entryY=0.5;entryDx=0;entryDy=0;" edge="1" parent="1">
          <mxGeometry width="50" height="50" relative="1" as="geometry">
            <mxPoint x="200" y="1198.5" as="sourcePoint" />
            <mxPoint x="531" y="1198.5" as="targetPoint" />
          </mxGeometry>
        </mxCell>
        <mxCell id="ZLNcmGzdZcA3_jxbhbgN-268" value="&lt;span style=&quot;color: rgb(77 , 77 , 77) ; font-size: 16px ; font-style: normal ; font-weight: 400 ; letter-spacing: normal ; text-indent: 0px ; text-transform: none ; word-spacing: 0px ; background-color: rgb(255 , 255 , 255) ; display: inline ; float: none&quot;&gt;指明跳至模式的最后一个匹配事件,&lt;br&gt;找到a的第一个匹配后，跳至最后一个&lt;br&gt;a的匹配&lt;br&gt;&lt;/span&gt;" style="text;whiteSpace=wrap;html=1;" vertex="1" parent="1">
          <mxGeometry x="560" y="1110" width="300" height="30" as="geometry" />
        </mxCell>
      </root>
    </mxGraphModel>
  </diagram>
</mxfile>
